<svg version="1.2" xmlns="http://www.w3.org/2000/svg" viewBox="0 0 878 777" width="878" height="777">
	<title>developer</title>
	<style>
		.s0 { fill: #ee9a8c } 
		.s1 { fill: #000000 } 
		.s2 { fill: #fefefe } 
		.s3 { fill: #f5d14a } 
		.s4 { fill: #497dc8 } 
	</style>
	<path data-aos="fade-down" class="s0" d="m244.1 209.8c-2.2 9.3-6.3 18.1-8.7 27.4q1.7 0.1 3.3 0.3c3.8 0.3 19.5 2.5 21.4 4.7-2.7 2.6-20.7 4.1-25.1 4.7 3 7.7 7.4 15.8 9.2 23.9l-0.6 0.4c-3.5-2.6-14-17.3-16.8-21.6-6.3 7.6-11 16.6-17.6 23.9 2.1-9.2 5.7-18.3 8.9-27.2-8.3-0.7-16-2.5-24-4.4 7.8-2.4 16-4.1 24-5.8-2.5-8.4-6.6-16.4-8.9-24.8 4.6 2.3 13.8 16.1 17.6 20.9 5.4-7.7 11.4-15 17.3-22.4z"/>
	<path class="s1" d="m219.4 564.7c6-0.1 24-1.4 28.8 0.4 0.8 1.1 1.1 2.3 1.5 3.6 3 0.1 7-0.3 9.7 0.8q0.4 0.1 0.8 0.3 0.5 0.2 0.9 0.5 0.4 0.2 0.8 0.4 0.4 0.3 0.8 0.6 0.4 0.2 0.8 0.5 0.4 0.3 0.8 0.6 0.3 0.3 0.7 0.6 0.4 0.4 0.7 0.7 0.3 0.3 0.7 0.7 0.3 0.3 0.6 0.7 0.3 0.4 0.6 0.8 0.2 0.4 0.5 0.8 0.3 0.4 0.5 0.8 0.3 0.4 0.5 0.8 0.2 0.4 0.4 0.9 0.2 0.4 0.4 0.8c2 4.7 1.7 9.3-0.3 13.9-2.4 5.2-6.1 8.3-11.4 10.3-2.9 0.1-5.9-0.1-8.8-0.3 0 3.7 0.6 8.3-0.4 11.9-3.4 1.7-25.6 0.8-30.5 0.6-0.9-9.1-0.4-18.7-0.4-27.9 0-6.8-0.5-14 0.1-20.8 0.1-1.2 0.4-2 1.2-3z"/>
	<path class="s2" d="m249.5 579c2-0.2 4.1-0.5 6.1 0.3 1.7 0.6 3.2 2 3.8 3.8 1.2 3.1 0.1 6.4-1.2 9.2-0.9 0.6-0.6 0.5-1.6 0.9-2.2 0.9-3.6 1.6-5.9 0.6-2.5-3.4-1.3-10.8-1.2-14.8z"/>
	<path class="s3" d="m249.4 571.1c4.3-0.2 7.7-0.3 11.6 1.9 3.7 2.2 6.5 5.8 7.5 10 0.9 4.3-0.1 8.9-2.5 12.5-2.5 3.7-5.8 5.7-10.1 6.5-1.5 0.1-3.6 0.4-5.1-0.2-1.3-0.5-1.5-1.1-2-2.2 0-1.6 0.3-2.3 0.9-3.7 2.8 0.5 5.3 0.8 8-0.5 2.1-1.1 3.4-3 4.2-5.3 0.9-2.8 0.8-7.2-0.7-9.9-2.1-3.7-7.7-3.1-11.4-4.1-0.7-1.4-0.4-3.4-0.4-5z"/>
	<path class="s2" d="m220.5 567.2c8.7-0.2 17.6-0.3 26.3 0.2q-0.2 23.4 0.1 46.8h-26.3c-0.3-15.7-0.1-31.4-0.1-47z"/>
	<path class="s1" d="m420 0.1l1.6 0.8c1.3 3.4 0.5 63 0.8 74.1 16.4 1.3 31.2 6.1 43.8 16.8 12.9 11 22.2 26.5 23.6 43.5l-67.5-0.3c-23.6 0.1-47.3 0.8-70.8 0 2.1-14.8 7.4-27.4 17.7-38.4 13.4-14.2 31.3-20.7 50.5-21.3l-0.1-50.2c0-8.1-0.7-17 0.4-25z"/>
	<path class="s2" d="m415.8 77.7c14.2-1.8 30.8 3.2 42.5 11.1 15.4 10.4 25.3 25.6 28.9 43.8-20.4 0.3-40.9 0-61.3 0l-71.5-0.1c2.3-11.6 6.3-21.9 13.9-31.2 11.9-14.6 29-21.9 47.5-23.6z"/>
	<path class="s1" d="m708.8 163.1c0.4 0.1 1 0.4 1.2 0.6 0.1 0 0.7 0.7 0.7 0.9 1 3.1 0.2 61.8 0.2 70.8 15.6 1.3 28.6 5.4 40.9 15.2 15.2 12.2 23.7 28 25.8 47.3-22.9 0.6-45.9 0-68.8 0-22.8 0-45.6 0.3-68.3 0 0.3-14.2 7-29 16.5-39.4 13.6-14.8 31.4-22.3 51.3-23.1l-0.1-46.5c0-7.6-1.2-18.6 0.6-25.8z"/>
	<path class="s2" d="m704.7 238.2q1.5-0.1 3.1-0.2 1.5 0 3.1 0 1.6 0.1 3.1 0.2 1.6 0.1 3.1 0.3 1.6 0.1 3.1 0.4 1.5 0.3 3.1 0.6 1.5 0.3 3 0.7 1.5 0.4 3 0.9 1.5 0.5 2.9 1 1.5 0.6 2.9 1.2 1.4 0.6 2.8 1.3 1.4 0.7 2.8 1.5 1.4 0.7 2.7 1.5 1.3 0.8 2.6 1.7 1.3 0.9 2.5 1.9 1.3 0.9 2.5 1.9c12.7 10.7 22.2 25.4 23.7 42.3h-60.5q-35.7 0.3-71.4 0.2c1.6-12.5 6.2-24 14.4-33.7 12.4-14.6 28.4-22.2 47.5-23.7z"/>
	<path class="s1" d="m392.8 451.5q-0.3-0.2-0.5-0.5c-0.8-0.7-1-1.2-1.2-2.2-1.1-6-0.3-13.2-0.3-19.3 0-10.4-0.4-20.7-0.2-31 0.2-11.3 3-21.6 11.4-29.6 7.9-7.6 18.4-11.2 29.3-11q0.9 0.1 1.9 0.1 0.9 0.1 1.8 0.2 1 0.1 1.9 0.3 1 0.1 1.9 0.4 0.9 0.2 1.8 0.4 0.9 0.3 1.9 0.6 0.9 0.3 1.7 0.6 0.9 0.4 1.8 0.8 0.9 0.4 1.7 0.8 0.8 0.4 1.7 0.9 0.8 0.5 1.6 1 0.8 0.5 1.6 1.1 0.7 0.5 1.5 1.1 0.7 0.6 1.4 1.2 0.7 0.7 1.4 1.3 0.7 0.7 1.3 1.4c10 10.6 10.8 23.1 10.2 36.9 1 1.5 2.2 3.1 2.5 5 0.4 3-1.3 5.5-2.9 7.9q-0.3 14.5-0.2 28.9c22.4 3 43.1 10.2 61.6 23.4q2.3 1.5 4.4 3.2 2.2 1.7 4.3 3.4 2.1 1.8 4.1 3.6 2 1.9 4 3.8 1.9 1.9 3.7 4 1.9 2 3.6 4.1 1.8 2.1 3.4 4.3 1.7 2.1 3.3 4.4 1.5 2.2 3 4.5 1.5 2.4 2.8 4.7 1.4 2.4 2.6 4.8 1.3 2.5 2.4 4.9 1.2 2.5 2.2 5.1 1 2.5 2 5.1 0.9 2.5 1.7 5.2 0.8 2.6 1.5 5.2c2.8 11 4 22.5 5.6 33.7q3.6 25.4 7.7 50.7l167.7 0.3c0.1-27.8-0.5-55.7 0-83.4 0.3-16 5.7-30.2 17.3-41.4q1.1-1 2.2-2 1.2-0.9 2.3-1.9 1.2-0.9 2.4-1.7 1.2-0.9 2.5-1.7 1.2-0.8 2.5-1.5 1.3-0.7 2.7-1.4 1.3-0.7 2.7-1.3 1.3-0.6 2.7-1.1 1.4-0.5 2.8-1 1.4-0.4 2.9-0.8 1.4-0.4 2.9-0.7 1.4-0.3 2.9-0.6 1.4-0.2 2.9-0.4 1.5-0.2 3-0.3 1.5 0 2.9-0.1 1.5 0 3 0.1c15.8 0.4 30.3 7.5 41 19q1.5 1.5 2.8 3.2 1.3 1.7 2.6 3.4 1.2 1.8 2.2 3.6 1.1 1.9 2 3.8 1 1.9 1.8 3.9 0.8 1.9 1.4 4 0.7 2 1.2 4.1 0.5 2 0.8 4.1c1.6 9.5 0.6 20.1 0.6 29.7q-0.1 21 0 42l0.1 98.9c0 14.1 0.7 28.5 0.1 42.6-0.3 7.3-2.9 14-8.5 18.9-4.1 3.6-10.3 4.6-15.6 4.8-13.1 0.4-26.5 0-39.7-0.1h-75.5l-325.2-0.1h-276.8-83.1c-17.2 0.1-34.5 0.6-51.6-0.2v-161.5l-0.1-46c0-10.7-0.8-22 1.1-32.6 1.9-10.5 7.2-20 14.5-27.7 10.3-10.9 25.6-17.9 40.5-18.3 16-0.4 30.5 5.9 41.9 16.9q1.5 1.4 2.8 2.9 1.4 1.5 2.6 3.1 1.3 1.5 2.4 3.2 1.1 1.6 2.1 3.4 1 1.7 1.9 3.5 0.9 1.8 1.7 3.7 0.7 1.8 1.4 3.7 0.6 2 1.1 3.9c3.2 12.8 1.9 27.5 1.8 40.7q-0.2 27.7 0 55.5l177.5 0.2q3.4-22 7.4-43.9c4.2-23.5 7.4-46 19.3-67.2 15.9-28 43.6-51.3 74.3-61.2 9.4-3.1 19.1-3.9 28.5-6.6q0.3-0.1 0.6-0.2-4-0.4-8-0.4-4 0.1-8 0.6c-4.4 2.4-10.3 3.1-15.1 4.2z"/>
	<path class="s2" d="m461.5 407.4c2.2 0.2 4.3 0.7 5.8 2.5 1 1.2 1.5 2.7 1.2 4.3-0.4 2.3-1.9 3.5-3.8 4.7-0.8 0-1.7-0.1-2.5-0.2-1.7-0.4-3.3-1.7-4.2-3.2-0.7-1.2-0.9-2.6-0.5-4 0.7-2.2 2.2-3.1 4-4.1z"/>
	<path class="s2" d="m169.7 751.8c1.3 5.2 0.5 12.2 1.2 17.8h-17.4l-0.7-0.4c7.4-3.7 13.4-10 16.9-17.4z"/>
	<path class="s0" d="m392.8 451.5c0.9-4.3 0.3-9.4 0.3-13.8l-0.2-28.6c0-5.7-0.4-11.8 0.4-17.3 0.5-3.9 1.6-7.6 3.3-11.1 4.6-9.5 12.5-15.5 22.3-18.9-3 12.5-4.5 24.2-10.3 36-2.6 5.1-11 15-11.3 20l0.9 0.4c2.8-0.9 6.3-9.1 7.9-11.7 0.8 9.3 0.4 18.9 0.4 28.2 0 3.6-0.4 7.5 0.2 11 0.2 1.2 0.3 1 1.2 1.6-4.4 2.4-10.3 3.1-15.1 4.2z"/>
	<path class="s0" d="m422.3 360.6c4.9-0.3 9.9-0.5 14.8 0.2 8.6 1.3 16.8 7 21.9 14 6.3 8.7 8.8 19.7 7.2 30.4l-0.8 0.3c-12.3-2-21.6-2.8-31.5-11.4-8.4-7.3-12.3-18.4-12.9-29.3-0.1-1.9 0.1-2.7 1.3-4.2z"/>
	<path class="s2" d="m117.7 645.2c17.4-0.2 34.9-0.5 52.2 0.1q0.2 18.9 0 37.7c0 5.6 0.7 12.1-0.3 17.6l-0.5-0.4q-1.3-2.2-2.8-4.2-1.5-2-3.3-3.8c-12.5-12.6-30.5-9.8-46.8-9.7-0.1-6.4-1.1-32.4 0.3-36.9z"/>
	<path class="s2" d="m700.5 645.3c19.6-0.7 39.3-0.2 58.9-0.2 0 12.5 0.8 25.5-0.5 37.9-13.5 0.2-34.8-3.1-45.1 7.4-9.8 10.2-7.2 27.7-7.2 40.6 0 7-0.8 14.9 0.8 21.7 1.9 7.8 7.1 12.8 13.7 16.8h-20.9c-0.4-22.3-0.1-44.6-0.4-67-0.1-17.7-1-36.9-0.2-54.5 0-1.5-0.2-1.8 0.9-2.7z"/>
	<path class="s3" d="m563.1 629.2c41.3-0.6 82.8 0.3 124.2 0.3h72.4c8.5 0 40-1 45.4 0.9 1.5 0.5 2.6 1.4 3.2 2.9 0.8 2 0.3 4.6-0.6 6.5-1.1 2.1-2.5 2.6-4.6 3.2-13.2 0.5-26.5 0.1-39.6 0.1q-41.8 0.3-83.7 0l-80.2 0.3c-6.2 0-32.8 1.1-37.6-0.7q-2-0.8-2.8-2.7c-1-2.1-1.1-5.3-0.1-7.4 0.8-1.9 2.1-2.8 4-3.4z"/>
	<path class="s3" d="m68.8 628.6c8.4-1.1 17.5-0.3 26-0.3l50.5 0.1c50.5 0.1 101.1-0.7 151.7 0.1 2.8 0.1 7-0.1 9.7 1 1.5 0.6 3 2.3 3.5 3.8 0.6 1.9 0.3 4-0.5 5.7-1.1 2.2-2.6 3.2-4.8 3.9-18.1 0.3-36.3-0.1-54.5-0.1l-99-0.2-53.3 0.3c-8.7 0-18 0.7-26.7-0.3-2.5-0.2-5.3-0.6-6.8-3-1.1-1.7-1-4-0.5-5.9 0.8-2.7 2.4-3.8 4.7-5.1z"/>
	<path class="s2" d="m419.3 372.9c1.1 2 1.5 4.5 2.2 6.6q0.4 1.5 1 2.9 0.5 1.5 1.2 2.8 0.7 1.4 1.6 2.7 0.8 1.3 1.7 2.5c7.3 9.3 19 15.1 30.5 16.5-0.6 0.8-1.4 1.5-1.8 2.5-0.7 1.8-1.3 4.5-0.6 6.4 1.5 3.7 6.4 5.1 9.8 6.4 0.6 1.3 0.7 2.8 0.7 4.1 0.2 6-0.2 12-0.2 17.9 0 8.3 1.2 17.9-0.3 25.9-0.7 3.8-2.2 7.3-4.9 10-5 4.9-11.5 5.4-18.1 5.4-4.7-0.6-8.9-2.1-12.2-5.5-8.2-8.5-5.8-24.7-5.5-35.6-5.1-0.3-10.2-0.1-15.3 0 0-4.6-0.8-10 0.2-14.5 0.5 0.3 1.1 0.7 1.6 0.9 2.3 0.6 4.9 0 6.9-1.2 0.7-1.3 0.5-1.7 0.3-3.2-0.4-0.6-0.5-1-1.3-1.2-2.5-0.8-5.6 1.2-7.8 2.2-0.4-7.7 0.2-15.7-0.9-23.3 5.7-9.9 8.7-20.1 11.2-31.2z"/>
	<path class="s1" d="m417.4 404.2c0.8 0.4 1.6 0.4 2 1.4 0.8 1.7 0.1 3.3-0.6 5-1.1-0.7-1.8-1.4-2.1-2.6-0.4-1.5 0-2.5 0.7-3.8z"/>
	<path class="s4" d="m662.5 645.6l34.6-0.1c0.9 13.8 0.3 28.1 0.3 41.9l0.2 82.1h-35.1z"/>
	<path class="s4" d="m175.7 645.2l33.5 0.1c-0.1 13.5 0.7 120.7-0.7 124.1l-1.4 0.2h-33.2c-1-2.7-1.3-5.2-1.4-8-0.4-10.7-0.1-21.5-0.1-32.2l0.1-58.3c0-5-0.7-21.3 0.2-24.8 1-1.2 1.4-1 3-1.1z"/>
	<path class="s2" d="m594.5 645.7c21.8-0.4 43.7-0.2 65.5 0v123.8h-69.8l-20.2-0.1c3.6-5.9 5.8-12.4 5.7-19.5-0.2-8.5-3.8-17-10.1-22.9-8.9-8.4-18.7-9.5-30.4-9.2 0.2-2 0.5-3.9 0.7-5.9 10.3 0.1 20.9 0.5 31.1-0.3 9.4-0.7 20-4.4 26.1-11.9 11.9-14.4 3.1-37.5 1.4-54z"/>
	<path class="s2" d="m211.8 645.2q39.3-0.2 78.6 0.2c-1.6 10.5-6.2 30-5.1 39.9 0.6 5.1 2.8 10.1 5.8 14.3 9.3 12.5 22.8 12.9 36.9 12.9 6 0 12 0 18-0.1 2.4-0.1 6.5-0.7 8.5 0.9 0.3 1.4 0.5 2.4 0.3 3.9-1.9 0.7-9.8 0.5-14.2 1.8-9.6 2.7-15.9 8.6-20.8 17.1-0.9 2.2-1.7 4.4-2.3 6.8-2.4 9.9 0.4 18.2 5.6 26.6-37.2 0.7-74.5 0-111.7 0 1.5-12.1 0.3-25.3 0.4-37.6q0.3-43.4 0-86.7z"/>
	<path class="s3" d="m349.4 720.2c14.2-0.8 28.8-0.2 43.1-0.2l79.5-0.1 49.9 0.1c8.7 0.1 18.1-0.6 26.7 0.7 4.9 0.7 9.8 3.3 13.6 6.4q0.5 0.5 1.1 1 0.6 0.5 1.1 1.1 0.5 0.5 1 1.1 0.5 0.5 1 1.1 0.5 0.6 0.9 1.2 0.5 0.6 0.9 1.3 0.4 0.6 0.8 1.3 0.4 0.6 0.7 1.3 0.4 0.7 0.7 1.4 0.3 0.6 0.6 1.4 0.3 0.7 0.5 1.4 0.3 0.7 0.5 1.4 0.2 0.7 0.4 1.5 0.2 0.7 0.3 1.5 0.1 0.7 0.2 1.5 0.1 0.7 0.2 1.5c0.7 8-1.7 15.2-7 21.3-7.2 0.2-14.4 0.1-21.7 0.1h-217.5q-0.8-0.8-1.5-1.8-0.8-0.9-1.4-1.9-0.7-0.9-1.2-2-0.6-1-1.1-2.1-0.5-1.1-0.9-2.2-0.4-1.1-0.6-2.2-0.3-1.2-0.5-2.3-0.2-1.2-0.3-2.4-0.1-0.7-0.1-1.4 0-0.7 0-1.5 0-0.7 0-1.4 0.1-0.7 0.2-1.5 0-0.7 0.2-1.4 0.1-0.7 0.2-1.4 0.2-0.8 0.4-1.5 0.1-0.7 0.4-1.4 0.2-0.6 0.4-1.3 0.3-0.7 0.6-1.4 0.3-0.6 0.6-1.3 0.3-0.7 0.7-1.3 0.3-0.6 0.7-1.2 0.4-0.7 0.8-1.3 0.4-0.6 0.9-1.1 0.4-0.6 0.9-1.2c6-7 14-10.1 23.1-10.8z"/>
	<path class="s2" d="m730 685.6c5.2-0.5 10.8-0.1 16.1-0.1h29.8q49.1-0.2 98.2 0.2-0.1 21.2 0 42.4c0 8 0.8 16.9-0.6 24.7-0.7 3.7-2.2 7-4.6 9.9-3.9 4.6-8.4 6.4-14.3 6.8-27 0.4-54.2 0-81.2 0l-26.4 0.1c-5.2 0-10.6 0.3-15.8-0.3-4.1-0.4-8.5-1.7-12-4-4.9-3.3-8.2-8.7-9.4-14.5-1.2-5.6-1.4-38.5-0.5-44.9 0.5-3.7 1.7-7.3 3.9-10.4 4-5.9 9.9-8.6 16.8-9.9z"/>
	<path class="s2" d="m135.8 684.7c9.3 0.1 17.5 1.8 24.5 8.4 6.8 6.5 8.5 14.4 8.7 23.4 0.1 4.9 0.1 9.8 0.1 14.7 0.1 10.9 0.5 20.4-7.8 28.9-4.6 4.6-10.7 7.7-17.1 8.9-8.8 1.6-25.8 0.5-35.4 0.5l-71.6 0.1-34.3-0.1-0.1-84.5c44.3-0.6 88.7 0.1 133-0.3z"/>
	<path class="s2" d="m51.9 488.2c2-0.3 4.1-0.4 6.1-0.4 14.7-0.2 29 6.2 39.3 16.6 7.5 7.5 12.5 16.8 14.9 27.2 3 12.7 1.8 27.3 1.7 40.3l-0.1 54c-9.2 0-18.4-0.2-27.5-0.3-5.5 0-11.6-0.6-17 0.5-2.7 0.5-4.8 1.7-6.4 4.1-1.5 2.2-1.9 5.1-1.4 7.8 0.8 3.3 3.3 5.1 5.9 6.9 15.3 1.2 31 0.1 46.3 0.5 0.5 10.8 0.1 21.9 0 32.7 0.1 1.5 0.2 2.8-0.4 4.2-7.8 1.1-24.9 0.2-33.4 0.2l-77-0.1v-98.3l-0.1-27.8c0-7.5-0.4-15.2 0.8-22.6 1.4-8.5 4.9-16.1 9.9-23 9.2-12.6 23.1-20.2 38.4-22.5z"/>
	<path class="s2" d="m812.3 488.7c2-0.3 4.1-0.3 6.1-0.3 14.6-0.2 28.7 6.1 39 16.2 7 7 12.8 16.4 15 26.1 3.1 13.7 1.4 40.9 1.4 56l0.3 96.5q-50.1-0.3-100.1-0.1h-12.3q0.2-19-0.1-37.9c9.2-0.2 18.3 0 27.5 0 5 0 10.4 0.4 15.4-0.4 1.4-0.2 2.7-0.7 3.8-1.7 1.9-1.6 3.1-4.1 3.2-6.6 0-2.3-1-4.6-2.6-6.3-1.2-1.3-2.7-2-4.4-2.4-5.6-1.1-12.2-0.5-18-0.4q-12.4 0-24.8-0.2v-58.4c-0.1-12-1.2-25.2 1.3-37q0.3-1.5 0.6-2.9 0.4-1.5 0.9-2.9 0.5-1.4 1-2.8 0.5-1.4 1.2-2.7 0.6-1.4 1.3-2.7 0.7-1.3 1.5-2.6 0.7-1.2 1.6-2.5 0.8-1.2 1.7-2.4c9.8-12.7 23.7-19.6 39.5-21.6z"/>
	<path class="s2" d="m342 588.7c44.5-0.7 89-0.1 133.5 0h48c7.2 0 14.8-0.6 22 0 1.7 0.1 4.1 0.5 5.3 1.7 1.3 1.4 1 3.6 0.9 5.3-0.7 11.9-3.3 24.1-5.2 35.8q-5.7 36.5-11.8 72.9-1.2 6.6-2.3 13.3c-58.5-0.7-117-0.2-175.6-0.2-1.4-15-4-30-6.2-44.9-2.1-13.9-3.9-27.9-6-41.8-1.6-10.3-6-30.4-5.3-39.6 0.9-1.5 1.3-1.7 2.7-2.5z"/>
	<path class="s1" d="m443.6 641.6c1.9-0.2 3.9-0.4 5.7 0.2 2.9 0.9 5.3 3 6.6 5.8q0.3 0.4 0.4 0.9 0.2 0.5 0.3 0.9 0.1 0.5 0.2 1 0.1 0.5 0.1 1 0.1 0.5 0 1 0 0.5-0.1 1 0 0.5-0.2 1-0.1 0.5-0.2 1c-1.2 3.2-3.3 4.8-6.3 6.3-1.6 0.3-3.5 0.4-5.1 0.2-2.6-0.4-5.1-1.9-6.7-4-1.5-2.2-2-5-1.6-7.6 0.8-4.2 3.4-6.5 6.9-8.7z"/>
	<path class="s2" d="m418.8 450.7l2-0.1c3.6 4.2-2.4 20.2 6.4 29.8 4.6 4.9 10.5 7.2 17.1 7.4 6.5 0.1 12.8-1.6 17.5-6.2 8-7.9 6.1-20 6-30.2q2.3 0.3 4.7 0.6 2.3 0.3 4.7 0.7 2.3 0.5 4.6 1 2.3 0.5 4.6 1.1 2.3 0.6 4.6 1.2 2.3 0.7 4.5 1.5 2.3 0.7 4.5 1.6 2.2 0.8 4.4 1.8 2.2 0.9 4.3 1.9 2.2 1 4.3 2.1 2.1 1.1 4.1 2.3 2.1 1.1 4.1 2.4 2 1.2 4 2.5 2 1.4 3.9 2.8 1.9 1.4 3.8 2.8 1.9 1.5 3.7 3c36.6 31.1 40.3 61 46.5 105 2 13.6 4.7 27.4 5.9 41.2-7.4 0.2-25.6-1.9-30.7 2.8-1.7 1.7-2.5 4.1-2.5 6.5 0 2.5 0.7 4.7 2.5 6.5 4.9 4.7 26.1 2.8 33.5 2.9 2.2 8.9 4.9 26 5 35 0 7.3-2 14.4-7.4 19.5-12.8 12.3-36.9 9.4-53.2 9.4 2.1-10.1 3.5-20.3 5.2-30.5q4.5-25.6 8.2-51.4c1.4-10.2 3.8-20.7 4.4-31 0.2-2.4 0.2-5.5-1.1-7.7-6.2-4.4-24.4-2.5-32.7-2.5l-123.7 0.1-34.8-0.2c-6.3 0-13.1-0.6-19.3 0.1-1.8 0.3-4.1 1.1-5 2.9-0.9 1.8-0.5 5.4-0.3 7.5 1 10.3 3.3 20.6 4.8 31 4 27.4 8.2 54.8 11.7 82.3-11.7 0-29 1.1-40.1-0.5-8.1-1.1-16.2-5.3-21-12q-0.9-1.3-1.7-2.7-0.8-1.4-1.4-2.9-0.6-1.5-1-3-0.5-1.5-0.7-3.1c-1.4-10.3 3.4-29.6 5.3-40.5 4.9 0.1 12.6 1.1 16.6-2.1 2.1-1.6 3.6-4.1 3.8-6.7 0.3-2.5-0.6-4.8-2.3-6.7-3.8-4-9.7-3.6-14.8-3.7 1.1-12.4 4-24.8 6.1-37.1 5.8-33.1 8.8-59.4 29.8-87.5 20.2-27.2 53.1-46.1 86.6-50.9z"/>
</svg>