<?xml version="1.0" encoding="utf-8" ?>
<svg xmlns="http://www.w3.org/2000/svg" xmlns:xlink="http://www.w3.org/1999/xlink" width="1024" height="1024">
	<path fill="#FEFEFE" d="M0 0L1024 0L1024 1024L0 1024L0 0Z"/>
	<path fill="#EE9A8C" d="M310.094 335.798C307.924 345.069 303.842 353.94 301.427 363.217Q303.073 363.29 304.712 363.452C308.457 363.826 324.22 365.968 326.07 368.238C323.411 370.755 305.391 372.295 300.956 372.855C303.969 380.592 308.411 388.711 310.209 396.785L309.597 397.183C306.129 394.597 295.621 379.909 292.844 375.616C286.511 383.185 281.776 392.152 275.24 399.529C277.297 390.262 280.918 381.216 284.055 372.27C275.831 371.624 268.064 369.803 260.068 367.894C267.879 365.537 276.083 363.797 284.077 362.13C281.631 353.659 277.489 345.744 275.194 337.327C279.81 339.607 288.956 353.44 292.757 358.244C298.181 350.517 304.236 343.197 310.094 335.798Z"/>
	<path d="M285.351 690.655C291.447 690.576 309.374 689.268 314.212 691.064C314.986 692.233 315.339 693.359 315.742 694.682C318.672 694.762 322.666 694.352 325.367 695.454Q325.81 695.637 326.243 695.842Q326.676 696.048 327.099 696.274Q327.521 696.5 327.932 696.747Q328.343 696.994 328.741 697.261Q329.139 697.528 329.524 697.814Q329.908 698.1 330.278 698.405Q330.648 698.71 331.002 699.033Q331.356 699.356 331.694 699.696Q332.032 700.036 332.352 700.392Q332.673 700.748 332.976 701.12Q333.278 701.492 333.562 701.878Q333.846 702.264 334.11 702.664Q334.375 703.064 334.619 703.476Q334.863 703.888 335.087 704.312Q335.311 704.736 335.513 705.171Q335.715 705.605 335.896 706.049C337.85 710.724 337.603 715.276 335.561 719.861C333.236 725.08 329.462 728.204 324.188 730.197C321.266 730.294 318.317 730.056 315.397 729.919C315.432 733.624 315.997 738.226 314.966 741.773C311.611 743.517 289.408 742.586 284.508 742.439C283.606 733.272 284.082 723.719 284.067 714.491C284.056 707.69 283.583 700.47 284.213 693.723C284.33 692.479 284.57 691.666 285.351 690.655Z"/>
	<path fill="#FEFEFE" d="M315.476 704.971C317.505 704.797 319.6 704.517 321.551 705.261C323.282 705.922 324.8 707.301 325.442 709.061C326.585 712.193 325.459 715.45 324.196 718.338C323.276 718.926 323.564 718.802 322.63 719.185C320.381 720.107 319.042 720.763 316.742 719.794C314.184 716.407 315.392 709.039 315.476 704.971Z"/>
	<path fill="#F5D14A" d="M315.435 697.091C319.742 696.902 323.081 696.806 326.976 699.047C330.699 701.189 333.525 704.794 334.468 709.01C335.425 713.284 334.435 717.86 332.006 721.481C329.533 725.166 326.228 727.181 321.942 728.009C320.447 728.06 318.254 728.356 316.831 727.798C315.548 727.295 315.335 726.705 314.776 725.56C314.799 724.042 315.109 723.262 315.731 721.918C318.543 722.385 320.995 722.702 323.656 721.381C325.788 720.323 327.111 718.351 327.856 716.132C328.802 713.31 328.748 708.873 327.237 706.237C325.098 702.508 319.485 703.114 315.81 702.092C315.139 700.656 315.406 698.669 315.435 697.091Z"/>
	<path fill="#FEFEFE" d="M286.458 693.158C295.178 692.967 304.094 692.906 312.799 693.387Q312.637 716.814 312.887 740.239L286.558 740.161C286.253 724.512 286.544 708.814 286.458 693.158Z"/>
	<path d="M486.029 126.1L487.65 126.871C488.873 130.293 488.099 189.927 488.412 201.019C504.761 202.287 519.582 207.099 532.225 217.841C545.075 228.758 554.434 244.315 555.823 261.314L488.25 261.032C464.73 261.074 440.967 261.802 417.475 260.99C419.573 246.225 424.911 233.586 435.196 222.638C448.563 208.409 466.48 201.939 485.69 201.299L485.644 151.143C485.636 142.991 484.861 134.132 486.029 126.1Z"/>
	<path fill="#FEFEFE" d="M481.763 203.699C495.963 201.87 512.555 206.881 524.269 214.792C539.708 225.218 549.601 240.363 553.214 258.585C532.784 258.868 512.309 258.59 491.875 258.567L420.37 258.537C422.749 246.883 426.662 236.556 434.286 227.268C446.218 212.732 463.32 205.421 481.763 203.699Z"/>
	<path d="M774.84 289.1C775.166 289.236 775.762 289.463 776.032 289.674C776.126 289.749 776.687 290.416 776.742 290.597C777.701 293.716 776.923 352.389 776.921 361.421C792.464 362.723 805.548 366.782 817.814 376.644C832.981 388.838 841.525 404.579 843.599 423.877C820.712 424.454 797.655 423.884 774.75 423.925C752.021 423.942 729.244 424.238 706.521 423.861C706.793 409.698 713.527 394.896 723.016 384.532C736.637 369.656 754.393 362.231 774.343 361.441L774.221 314.91C774.186 307.269 773.019 296.308 774.84 289.1Z"/>
	<path fill="#FEFEFE" d="M770.661 364.201Q772.216 364.083 773.775 364.04Q775.334 363.997 776.893 364.03Q778.452 364.063 780.008 364.171Q781.564 364.279 783.112 364.462Q784.661 364.645 786.199 364.902Q787.737 365.16 789.261 365.492Q790.785 365.824 792.291 366.229Q793.797 366.634 795.281 367.112Q796.766 367.589 798.226 368.138Q799.685 368.686 801.117 369.305Q802.549 369.924 803.949 370.611Q805.349 371.298 806.714 372.052Q808.079 372.806 809.406 373.625Q810.733 374.444 812.019 375.326Q813.305 376.209 814.547 377.152Q815.788 378.096 816.983 379.098C829.711 389.802 839.24 404.531 840.682 421.358L780.196 421.362Q744.513 421.652 708.828 421.562C710.389 409.076 714.96 397.586 723.156 387.935C735.623 373.254 751.624 365.708 770.661 364.201Z"/>
	<path d="M458.795 577.499C458.615 577.349 458.424 577.211 458.254 577.049C457.476 576.301 457.281 575.837 457.096 574.774C456.048 568.764 456.815 561.646 456.799 555.478C456.773 545.146 456.419 534.796 456.578 524.466C456.751 513.199 459.63 502.881 467.979 494.896C475.874 487.346 486.397 483.693 497.257 483.937Q498.207 483.957 499.155 484.025Q500.103 484.092 501.047 484.208Q501.99 484.323 502.927 484.485Q503.863 484.648 504.791 484.857Q505.718 485.066 506.633 485.322Q507.549 485.577 508.45 485.879Q509.352 486.18 510.237 486.526Q511.122 486.872 511.989 487.262Q512.856 487.652 513.702 488.085Q514.548 488.519 515.371 488.994Q516.194 489.469 516.992 489.985Q517.791 490.5 518.562 491.056Q519.334 491.611 520.076 492.204Q520.819 492.798 521.53 493.427Q522.242 494.057 522.922 494.722Q523.601 495.387 524.246 496.085C534.18 506.744 534.958 519.21 534.362 532.976C535.438 534.471 536.582 536.099 536.852 537.969C537.285 540.97 535.621 543.531 534.032 545.884Q533.706 560.362 533.799 574.843C556.191 577.842 576.921 585.008 595.426 598.156Q597.667 599.725 599.837 601.39Q602.007 603.056 604.101 604.816Q606.195 606.575 608.21 608.425Q610.225 610.276 612.157 612.213Q614.088 614.15 615.933 616.17Q617.777 618.19 619.531 620.289Q621.284 622.388 622.944 624.563Q624.603 626.737 626.166 628.983Q627.728 631.228 629.19 633.54Q630.652 635.852 632.01 638.227Q633.369 640.601 634.622 643.032Q635.875 645.464 637.02 647.948Q638.164 650.433 639.199 652.965Q640.233 655.497 641.155 658.073Q642.076 660.648 642.884 663.262Q643.691 665.875 644.383 668.522C647.151 679.516 648.378 691.036 650.017 702.247Q653.567 727.644 657.743 752.945L825.38 753.153C825.488 725.367 824.949 697.529 825.423 669.753C825.695 653.794 831.074 639.591 842.726 628.422Q843.802 627.396 844.927 626.424Q846.053 625.453 847.226 624.539Q848.398 623.625 849.615 622.77Q850.831 621.915 852.089 621.122Q853.347 620.329 854.642 619.6Q855.938 618.87 857.268 618.206Q858.598 617.542 859.96 616.945Q861.322 616.349 862.712 615.82Q864.101 615.292 865.516 614.833Q866.93 614.375 868.365 613.987Q869.801 613.599 871.254 613.284Q872.706 612.968 874.173 612.725Q875.64 612.482 877.117 612.313Q878.594 612.143 880.078 612.047Q881.562 611.951 883.048 611.93Q884.535 611.908 886.021 611.96C901.822 612.435 916.305 619.467 927.038 630.973Q928.487 632.536 929.818 634.2Q931.149 635.864 932.355 637.621Q933.561 639.378 934.635 641.218Q935.71 643.058 936.648 644.972Q937.586 646.886 938.381 648.862Q939.177 650.839 939.826 652.869Q940.476 654.898 940.976 656.97Q941.476 659.042 941.823 661.144C943.405 670.627 942.446 681.242 942.374 690.846Q942.289 711.808 942.431 732.769L942.506 831.691C942.479 845.8 943.229 860.201 942.595 874.271C942.267 881.558 939.734 888.327 934.11 893.218C930.003 896.79 923.82 897.788 918.527 897.965C905.357 898.404 892.028 897.951 878.845 897.914L803.288 897.906L478.135 897.845L201.314 897.82L118.199 897.824C101.041 897.869 83.6955 898.413 66.5643 897.594L66.5567 736.087L66.4821 690.093C66.4612 679.385 65.6825 668.103 67.604 657.533C69.519 646.999 74.755 637.515 82.0971 629.779C92.3778 618.948 107.666 611.862 122.621 611.476C138.585 611.064 153.125 617.387 164.52 628.421Q165.971 629.808 167.322 631.293Q168.673 632.778 169.916 634.354Q171.159 635.93 172.288 637.589Q173.417 639.249 174.428 640.983Q175.438 642.718 176.324 644.519Q177.21 646.32 177.967 648.179Q178.725 650.038 179.35 651.945Q179.975 653.852 180.465 655.799C183.706 668.603 182.367 683.312 182.335 696.481Q182.067 724.227 182.307 751.974L359.802 752.185Q363.209 730.214 367.221 708.345C371.395 684.844 374.558 662.334 386.534 641.14C402.355 613.142 430.073 589.828 460.782 579.877C470.178 576.832 479.927 576.018 489.309 573.304C489.518 573.243 489.726 573.178 489.934 573.116Q485.931 572.667 481.903 572.718Q477.875 572.769 473.884 573.32C469.509 575.653 463.628 576.403 458.795 577.499Z"/>
	<path fill="#FEFEFE" d="M527.537 533.397C529.725 533.588 531.804 534.116 533.264 535.873C534.27 537.083 534.81 538.624 534.516 540.202C534.083 542.53 532.633 543.73 530.726 544.93C529.895 544.872 529.045 544.819 528.227 544.654C526.472 544.299 524.888 543.046 524.006 541.503C523.301 540.27 523.123 538.882 523.519 537.515C524.154 535.322 525.668 534.441 527.537 533.397Z"/>
	<path fill="#FEFEFE" d="M235.727 877.848C236.96 882.978 236.163 890.029 236.885 895.575L219.478 895.558L218.826 895.169C226.178 891.521 232.157 885.175 235.727 877.848Z"/>
	<path fill="#EE9A8C" d="M458.795 577.499C459.654 573.214 459.117 568.103 459.091 563.712L458.913 535.052C458.881 529.418 458.457 523.322 459.262 517.751C459.821 513.881 460.858 510.22 462.585 506.703C467.237 497.227 475.074 491.212 484.885 487.788C481.866 500.315 480.385 511.984 474.572 523.789C472.05 528.911 463.552 538.767 463.304 543.79L464.162 544.218C466.974 543.303 470.538 535.133 472.083 532.509C472.851 541.839 472.461 551.378 472.494 560.746C472.506 564.25 472.134 568.249 472.704 571.698C472.901 572.886 472.985 572.665 473.884 573.32C469.509 575.653 463.628 576.403 458.795 577.499Z"/>
	<path fill="#EE9A8C" d="M488.339 486.637C493.197 486.299 498.245 486.058 503.072 486.803C511.72 488.138 519.857 493.842 524.966 500.817C531.307 509.474 533.77 520.549 532.207 531.155L531.389 531.506C519.074 529.537 509.804 528.734 499.932 520.122C491.508 512.773 487.605 501.744 487.037 490.765C486.939 488.862 487.075 488.071 488.339 486.637Z"/>
	<path fill="#FEFEFE" d="M183.746 771.245C201.067 771.046 218.585 770.737 235.893 771.335Q236.135 790.182 235.936 809.029C235.915 814.639 236.61 821.138 235.625 826.624L235.074 826.215Q233.831 824.03 232.31 822.028Q230.789 820.025 229.018 818.241C216.466 805.618 198.477 808.394 182.235 808.477C182.122 802.147 181.086 776.142 182.493 771.585L183.746 771.245Z"/>
	<path fill="#FEFEFE" d="M766.477 771.254C786.057 770.609 805.773 771.077 825.368 771.144C825.445 783.645 826.17 796.599 824.935 809.033C811.372 809.239 790.092 805.859 779.844 816.446C769.972 826.646 772.576 844.082 772.643 857.044C772.613 864.027 771.788 871.922 773.433 878.704C775.312 886.454 780.485 891.539 787.073 895.504L766.207 895.549C765.759 873.223 766.064 850.853 765.843 828.521C765.667 810.765 764.807 791.584 765.552 773.978C765.614 772.51 765.407 772.243 766.477 771.254Z"/>
	<path fill="#F5D14A" d="M629.085 755.2C670.442 754.646 711.91 755.496 753.283 755.54L825.743 755.501C834.184 755.497 865.697 754.487 871.122 756.415C872.593 756.938 873.674 757.8 874.276 759.271C875.095 761.275 874.625 763.924 873.673 765.806C872.615 767.898 871.188 768.386 869.073 769.015C855.931 769.514 842.642 769.119 829.484 769.143Q787.655 769.433 745.827 769.129L665.647 769.4C659.381 769.409 632.841 770.49 628.019 768.667C626.694 768.165 625.761 767.289 625.165 766.012C624.165 763.871 624.092 760.715 625.086 758.561C625.945 756.7 627.207 755.843 629.085 755.2Z"/>
	<path fill="#F5D14A" d="M134.843 754.601C143.185 753.496 152.347 754.266 160.787 754.285L211.274 754.398C261.799 754.491 312.45 753.673 362.961 754.538C365.84 754.587 369.983 754.417 372.673 755.465C374.201 756.06 375.689 757.774 376.21 759.318C376.841 761.189 376.538 763.296 375.677 765.046C374.608 767.217 373.111 768.176 370.888 768.935C352.763 769.205 334.578 768.841 316.445 768.783L217.397 768.645L164.096 768.888C155.35 768.921 146.12 769.584 137.444 768.639C134.898 768.362 132.122 767.95 130.607 765.609C129.471 763.855 129.556 761.589 130.139 759.66C130.931 757.036 132.542 755.895 134.843 754.601Z"/>
	<path fill="#FEFEFE" d="M485.254 498.905C486.417 500.85 486.839 503.371 487.482 505.538Q487.907 507.012 488.472 508.438Q489.037 509.864 489.737 511.228Q490.437 512.593 491.266 513.883Q492.094 515.174 493.044 516.378C500.28 525.735 511.952 531.456 523.526 532.947C522.889 533.687 522.13 534.436 521.742 535.35C520.955 537.202 520.366 539.883 521.128 541.833C522.56 545.498 527.548 546.929 530.885 548.199C531.487 549.468 531.56 550.959 531.61 552.346C531.825 558.273 531.374 564.289 531.401 570.232C531.437 578.514 532.623 588.059 531.132 596.149C530.444 599.877 528.879 603.373 526.172 606.073C521.233 610.997 514.666 611.502 508.098 611.472C503.445 610.915 499.239 609.375 495.904 605.967C487.653 597.532 490.067 581.251 490.416 570.36C485.331 570.141 480.221 570.345 475.133 570.442C475.07 565.827 474.33 560.364 475.288 555.865C475.752 556.163 476.389 556.631 476.939 556.785C479.158 557.406 481.833 556.764 483.768 555.633C484.478 554.283 484.285 553.886 484.115 552.406C483.656 551.79 483.558 551.405 482.775 551.172C480.311 550.439 477.198 552.423 475.002 553.449C474.596 545.749 475.157 537.743 474.146 530.114C479.773 520.181 482.847 509.982 485.254 498.905Z"/>
	<path d="M483.361 530.189C484.238 530.591 484.951 530.639 485.374 531.57C486.173 533.331 485.489 534.904 484.805 536.555C483.747 535.923 483.04 535.248 482.692 534.007C482.278 532.531 482.747 531.47 483.361 530.189Z"/>
	<path fill="#497DC8" d="M728.466 771.624L763.105 771.55C763.976 785.346 763.354 799.572 763.398 813.408L763.584 895.542L728.461 895.496L728.466 771.624Z"/>
	<path fill="#497DC8" d="M241.675 771.247L275.202 771.316C275.119 784.773 275.93 892.047 274.464 895.419L273.125 895.59L239.873 895.588C238.933 892.935 238.593 890.429 238.486 887.63C238.076 876.927 238.389 866.109 238.385 855.394L238.469 797.068C238.501 792.069 237.772 775.822 238.672 772.301C239.744 771.103 240.119 771.349 241.675 771.247Z"/>
	<path fill="#FEFEFE" d="M660.45 771.689C682.25 771.282 704.156 771.491 725.963 771.669L726.002 895.532L656.25 895.524L636.019 895.446C639.607 889.466 641.846 882.965 641.667 875.93C641.45 867.388 637.863 858.891 631.634 853.002C622.747 844.6 612.912 843.544 601.225 843.79C601.399 841.839 601.664 839.894 601.896 837.949C612.201 837.957 622.751 838.395 633.023 837.609C642.422 836.889 652.982 833.223 659.129 825.742C671.012 811.279 662.167 788.192 660.45 771.689Z"/>
	<path fill="#FEFEFE" d="M277.836 771.195Q317.113 770.995 356.389 771.356C354.793 781.87 350.165 801.397 351.326 811.251C351.936 816.421 354.058 821.381 357.132 825.562C366.382 838.144 379.867 838.489 394.013 838.465C400.021 838.455 406.03 838.533 412.037 838.399C414.399 838.346 418.547 837.705 420.468 839.265C420.79 840.682 420.968 841.699 420.845 843.169C418.861 843.918 410.986 843.747 406.602 844.98C396.993 847.684 390.681 853.558 385.837 862.085C384.918 864.323 384.075 866.535 383.507 868.892C381.111 878.831 383.904 887.115 389.054 895.529C351.882 896.245 314.55 895.532 277.365 895.539C278.943 883.351 277.715 870.204 277.765 857.869Q278.053 814.532 277.836 771.195Z"/>
	<path fill="#F5D14A" d="M415.383 846.202C429.631 845.445 444.181 845.986 458.457 845.973L538.015 845.948L587.942 846.046C596.641 846.073 606.027 845.438 614.633 846.677C619.46 847.372 624.418 850.008 628.154 853.107Q628.737 853.593 629.295 854.108Q629.853 854.622 630.385 855.164Q630.917 855.705 631.422 856.272Q631.926 856.838 632.403 857.429Q632.879 858.02 633.326 858.634Q633.772 859.247 634.188 859.882Q634.604 860.517 634.989 861.172Q635.373 861.826 635.724 862.499Q636.076 863.171 636.394 863.86Q636.712 864.549 636.996 865.253Q637.28 865.957 637.529 866.674Q637.778 867.391 637.991 868.12Q638.205 868.848 638.382 869.586Q638.56 870.324 638.7 871.07Q638.841 871.815 638.945 872.567Q639.049 873.319 639.116 874.075C639.816 882.087 637.366 889.293 632.145 895.414C624.914 895.563 617.66 895.462 610.426 895.481L392.915 895.511Q392.104 894.657 391.369 893.737Q390.633 892.817 389.978 891.838Q389.323 890.859 388.754 889.829Q388.184 888.798 387.704 887.723Q387.224 886.647 386.836 885.535Q386.449 884.423 386.157 883.282Q385.866 882.141 385.672 880.979Q385.478 879.818 385.383 878.644Q385.319 877.919 385.292 877.191Q385.264 876.464 385.273 875.736Q385.282 875.008 385.327 874.281Q385.371 873.554 385.452 872.831Q385.533 872.107 385.65 871.389Q385.766 870.67 385.919 869.958Q386.071 869.246 386.258 868.542Q386.446 867.839 386.668 867.146Q386.89 866.452 387.146 865.771Q387.402 865.089 387.692 864.421Q387.982 863.753 388.304 863.101Q388.627 862.448 388.981 861.812Q389.336 861.176 389.721 860.558Q390.107 859.941 390.523 859.343Q390.939 858.746 391.384 858.17Q391.829 857.593 392.302 857.04C398.324 849.964 406.312 846.877 415.383 846.202Z"/>
	<path fill="#FEFEFE" d="M795.972 811.643C801.21 811.119 806.823 811.498 812.088 811.511L841.905 811.53Q891.022 811.325 940.137 811.672Q939.979 832.902 940.108 854.132C940.126 862.108 940.906 870.998 939.481 878.833C938.812 882.508 937.307 885.841 934.899 888.711C931.042 893.308 926.474 895.058 920.625 895.499C893.555 895.9 866.447 895.505 839.372 895.518L812.98 895.592C807.778 895.611 802.384 895.9 797.215 895.327C793.077 894.869 788.715 893.631 785.234 891.313C780.28 888.014 777.04 882.568 775.828 876.808C774.647 871.199 774.444 838.332 775.325 831.887C775.832 828.174 777.034 824.628 779.156 821.519C783.185 815.617 789.142 812.853 795.972 811.643Z"/>
	<path fill="#FEFEFE" d="M201.825 810.745C211.125 810.792 219.296 812.458 226.301 819.13C233.067 825.575 234.83 833.477 235.032 842.463C235.142 847.354 235.057 852.266 235.11 857.161C235.231 868.129 235.611 877.603 227.291 886.078C222.715 890.739 216.561 893.76 210.158 894.966C201.395 896.616 184.442 895.541 174.787 895.526L103.25 895.558L68.949 895.522L68.8037 811.03C113.127 810.409 157.494 811.073 201.825 810.745Z"/>
	<path fill="#FEFEFE" d="M117.904 614.172C119.861 613.889 121.977 613.787 123.954 613.77C138.666 613.646 152.99 619.962 163.316 630.36C170.847 637.943 175.762 647.198 178.221 657.572C181.236 670.291 179.955 684.877 179.933 697.937L179.808 751.859C170.633 751.907 161.449 751.721 152.274 751.638C146.792 751.589 140.749 751.046 135.344 752.086C132.565 752.62 130.477 753.787 128.894 756.191C127.41 758.446 126.97 761.335 127.534 763.964C128.25 767.304 130.77 769.075 133.434 770.899C148.701 772.092 164.357 770.992 179.69 771.369C180.238 782.18 179.765 793.285 179.741 804.125C179.773 805.586 179.922 806.928 179.282 808.287C171.542 809.402 154.382 808.498 145.872 808.498L68.917 808.447L68.8684 710.148L68.7868 682.29C68.7537 674.797 68.3683 667.133 69.6125 659.714C71.0321 651.249 74.4562 643.591 79.4961 636.666C88.6769 624.052 102.625 616.514 117.904 614.172Z"/>
	<path fill="#FEFEFE" d="M878.269 614.677C880.294 614.4 882.377 614.426 884.42 614.401C898.951 614.221 913.091 620.496 923.373 630.627C930.413 637.564 936.153 647.014 938.381 656.698C941.531 670.395 939.819 697.62 939.814 712.704L940.058 809.207Q890.025 808.861 839.99 809.077L827.677 809.059Q827.897 790.137 827.64 771.215C836.773 771.005 845.919 771.183 855.055 771.225C860.107 771.248 865.475 771.632 870.481 770.85C871.892 770.629 873.204 770.058 874.3 769.135C876.205 767.532 877.436 765.001 877.483 762.506C877.527 760.179 876.527 757.858 874.924 756.193C873.716 754.938 872.246 754.187 870.544 753.85C864.881 752.729 858.274 753.344 852.483 753.354Q840.096 753.367 827.711 753.167L827.653 694.828C827.618 682.763 826.525 669.601 828.95 657.762Q829.251 656.306 829.635 654.869Q830.019 653.432 830.484 652.019Q830.95 650.606 831.495 649.222Q832.04 647.839 832.663 646.488Q833.286 645.138 833.985 643.825Q834.684 642.512 835.457 641.241Q836.23 639.97 837.074 638.746Q837.918 637.521 838.831 636.347C848.642 623.618 862.526 616.67 878.269 614.677Z"/>
	<path fill="#FEFEFE" d="M408.02 714.674C452.475 713.984 497.048 714.605 541.514 714.657L589.481 714.711C596.729 714.717 604.342 714.136 611.532 714.682C613.182 714.808 615.566 715.168 616.78 716.437C618.061 717.776 617.804 720.034 617.705 721.742C617.016 733.577 614.366 745.808 612.535 757.532Q606.81 793.985 600.693 830.375Q599.486 837.028 598.44 843.708C539.93 842.958 481.366 843.532 422.848 843.53C421.385 828.509 418.788 813.509 416.563 798.584C414.488 784.659 412.745 770.684 410.605 756.77C409.031 746.541 404.553 726.368 405.319 717.218C406.184 715.728 406.591 715.536 408.02 714.674Z"/>
	<path d="M509.568 767.587C511.464 767.374 513.478 767.231 515.32 767.823C518.17 768.738 520.647 770.844 521.937 773.551Q522.155 774.004 522.327 774.477Q522.5 774.95 522.624 775.437Q522.749 775.924 522.826 776.421Q522.902 776.919 522.929 777.421Q522.957 777.923 522.934 778.426Q522.912 778.928 522.84 779.426Q522.768 779.924 522.648 780.412Q522.528 780.901 522.36 781.375C521.193 784.603 519.063 786.218 516.083 787.694C514.477 787.961 512.62 788.14 511.009 787.889C508.393 787.482 505.901 786.04 504.349 783.879C502.808 781.733 502.251 778.899 502.734 776.316C503.525 772.088 506.119 769.843 509.568 767.587Z"/>
	<path fill="#FEFEFE" d="M484.774 576.666L486.778 576.573C490.386 580.798 484.364 596.841 493.238 606.404C497.775 611.293 503.741 613.598 510.336 613.768C516.779 613.934 523.148 612.212 527.835 607.576C535.765 599.732 533.9 587.591 533.779 577.43Q536.139 577.67 538.488 577.999Q540.837 578.328 543.172 578.746Q545.507 579.163 547.825 579.667Q550.143 580.172 552.44 580.764Q554.737 581.355 557.01 582.033Q559.283 582.71 561.529 583.473Q563.776 584.235 565.991 585.082Q568.207 585.928 570.39 586.858Q572.572 587.787 574.718 588.797Q576.864 589.808 578.971 590.899Q581.077 591.99 583.141 593.159Q585.205 594.328 587.223 595.574Q589.242 596.82 591.212 598.141Q593.182 599.461 595.101 600.856Q597.02 602.25 598.886 603.715Q600.751 605.181 602.56 606.715C639.164 637.839 642.854 667.715 649.147 711.687C651.101 725.345 653.824 739.109 654.961 752.852C647.639 753.067 629.388 750.95 624.339 755.748C622.555 757.443 621.837 759.835 621.829 762.248C621.822 764.671 622.498 766.941 624.275 768.653C629.225 773.418 650.417 771.55 657.752 771.567C659.961 780.535 662.744 797.628 662.795 806.628C662.836 813.868 660.76 821.005 655.423 826.136C642.645 838.42 618.468 835.532 602.179 835.514C604.287 825.433 605.69 815.171 607.387 805.011Q611.876 779.382 615.574 753.626C617.011 743.392 619.369 732.929 620.014 722.634C620.168 720.17 620.195 717.096 618.946 714.907C612.671 710.534 594.469 712.391 586.25 712.443L462.521 712.469L427.656 712.311C421.364 712.257 414.646 711.707 408.421 712.442C406.603 712.656 404.344 713.51 403.426 715.265C402.475 717.084 402.935 720.711 403.136 722.767C404.145 733.135 406.417 743.44 407.921 753.754C411.917 781.151 416.088 808.594 419.611 836.054C407.864 836.124 390.583 837.16 379.451 835.648C371.351 834.547 363.332 830.282 358.5 823.599Q357.559 822.305 356.78 820.908Q356.001 819.511 355.395 818.03Q354.79 816.55 354.366 815.007Q353.942 813.464 353.707 811.882C352.275 801.632 357.071 782.334 358.983 771.408C363.906 771.457 371.649 772.51 375.648 769.35C377.735 767.701 379.161 765.242 379.427 762.583C379.674 760.108 378.832 757.754 377.131 755.949C373.272 751.856 367.433 752.262 362.296 752.178C363.444 739.824 366.313 727.379 368.442 715.144C374.216 681.963 377.182 655.727 398.178 627.575C418.44 600.407 451.328 581.535 484.774 576.666Z"/>
</svg>
