<?xml version="1.0" encoding="utf-8" ?>
<svg xmlns="http://www.w3.org/2000/svg" xmlns:xlink="http://www.w3.org/1999/xlink" width="1024" height="1024">
	<path fill="#FEFEFE" d="M0 0L1024 0L1024 1024L0 1024L0 0Z"/>
	<path fill="#F0D9D5" d="M132.011 495.388C133.266 496.675 134.05 498.748 134.866 500.346Q132.741 517.456 128.314 534.12L127.805 535.703C126.805 533.934 131.058 499.631 132.011 495.388Z"/>
	<path fill="#ECBC5A" d="M304.219 678.982C300.849 675.61 287.388 663.619 287.127 659.707L287.737 659.206C292.052 660.148 303.133 672.886 306.608 676.4C309.339 673.51 321.83 659.401 324.719 659.201L325.745 660.045C325.835 661.274 325.88 661.169 325.076 662.106C319.947 668.079 313.755 673.11 308.64 679.139C313.597 684.039 322.141 690.581 325.303 696.569L325.03 697.508L324.077 698.028C320.834 696.958 309.658 684.828 306.43 681.683C302.737 685.359 292.461 696.948 288.339 698.466L287.104 698.181C286.863 697.034 286.9 697.014 287.527 696.067C290.922 690.934 299.481 683.466 304.219 678.982Z"/>
	<path d="M144.616 447.847C145.313 448.045 145.788 448.39 146.395 448.774L146.6 449.813C145.302 452.378 134.905 458.6 131.86 460.992C110.104 478.082 88.2991 501.188 84.9761 529.895C83.6289 541.533 85.597 553.481 93.0745 562.813C95.0645 565.297 97.8482 567.263 99.6792 569.767C100.457 570.831 100.233 571.17 100.07 572.422C99.7495 572.356 99.4257 572.304 99.1081 572.224C94.9328 571.177 91.0544 566.247 88.7856 562.731C81.1012 550.821 79.8312 535.816 82.9161 522.207C90.0221 490.859 118.232 464.33 144.616 447.847Z"/>
	<path fill="#F15F4A" d="M681.335 324.197C682.263 324.451 682.985 324.773 683.847 325.185C685.469 327.875 684.539 349.2 684.534 353.325C689.302 353.301 709.11 352.266 712.019 354.47C712.52 354.849 712.448 355.471 712.548 356.047L711.776 357.042C706.405 359.487 691.046 358.128 684.529 358.057C684.444 364.409 686.146 381.474 682.541 385.942C681.853 385.474 681.207 384.955 680.55 384.446C678.305 380.09 679.606 363.446 679.658 358.017C674.064 357.925 655.564 359.418 651.737 356.668C650.99 356.13 651.182 355.866 651.092 355.035C651.205 354.9 651.304 354.753 651.429 354.63C653.92 352.179 675.291 353.394 679.713 353.383C679.818 346.433 677.767 329.698 681.335 324.197Z"/>
	<path d="M199.272 493.203C203.201 492.964 209.568 492.669 213.147 494.356C214.17 494.838 214.18 494.861 214.551 495.971L213.833 497.06C210.753 497.713 206.592 496.44 203.378 496.284C199.927 496.117 196.124 496.562 192.732 497.158C174.229 500.408 157.714 512.836 147.193 528.066C128.538 555.074 123.562 591.924 129.463 623.758C133.274 644.323 141.656 663.581 159.291 675.764C160.894 676.637 163.098 677.547 164.446 678.779C165.351 679.606 165.954 680.307 165.998 681.523C165.859 681.569 165.726 681.634 165.583 681.661C161.855 682.359 155.379 677.386 152.552 675.091C134.544 660.471 127.002 636.058 124.801 613.764C121.58 581.142 128.177 545.264 149.556 519.535Q150.7 518.138 151.912 516.8Q153.124 515.461 154.401 514.185Q155.678 512.908 157.017 511.697Q158.356 510.485 159.753 509.342Q161.151 508.198 162.603 507.125Q164.055 506.053 165.559 505.053Q167.063 504.054 168.615 503.131Q170.167 502.207 171.762 501.362Q173.358 500.517 174.993 499.752Q176.629 498.987 178.301 498.305Q179.972 497.622 181.676 497.023Q183.379 496.425 185.11 495.911Q186.841 495.398 188.596 494.971Q190.35 494.544 192.124 494.205Q193.897 493.866 195.685 493.615Q197.474 493.365 199.272 493.203Z"/>
	<path fill="#ECBC5A" d="M462.551 187.188C468.479 186.406 474.984 187.709 480.097 190.779C486.418 194.575 491.31 200.968 493.088 208.144Q493.257 208.853 493.39 209.569Q493.524 210.285 493.621 211.007Q493.718 211.729 493.779 212.455Q493.84 213.181 493.865 213.909Q493.89 214.638 493.878 215.366Q493.867 216.094 493.819 216.821Q493.77 217.548 493.686 218.272Q493.602 218.996 493.481 219.714Q493.361 220.433 493.205 221.144Q493.049 221.856 492.857 222.559Q492.665 223.262 492.439 223.954Q492.212 224.647 491.952 225.327Q491.691 226.007 491.396 226.674Q491.102 227.34 490.774 227.991Q490.447 228.642 490.087 229.275Q489.728 229.909 489.337 230.524C484.428 238.117 477.487 241.558 468.912 243.538C461.662 244.266 454.758 242.663 448.831 238.238C442.372 233.415 437.881 225.757 436.932 217.74Q436.855 217.068 436.812 216.393Q436.769 215.718 436.76 215.042Q436.751 214.365 436.776 213.69Q436.801 213.014 436.859 212.34Q436.918 211.666 437.011 210.996Q437.104 210.326 437.23 209.662Q437.357 208.997 437.516 208.34Q437.676 207.683 437.868 207.034Q438.061 206.386 438.286 205.748Q438.51 205.11 438.767 204.484Q439.024 203.859 439.312 203.247Q439.599 202.635 439.918 202.038Q440.236 201.441 440.584 200.861Q440.932 200.281 441.308 199.719Q441.685 199.157 442.089 198.615Q442.494 198.073 442.925 197.552C448.001 191.345 454.574 187.952 462.551 187.188Z"/>
	<path fill="#F0D9D5" d="M463.474 190.183C469.94 189.627 476.385 191.237 481.484 195.357Q481.954 195.739 482.406 196.144Q482.857 196.548 483.288 196.974Q483.719 197.4 484.129 197.847Q484.538 198.294 484.926 198.76Q485.313 199.226 485.677 199.71Q486.041 200.195 486.381 200.697Q486.721 201.198 487.036 201.716Q487.351 202.234 487.641 202.766Q487.93 203.299 488.193 203.844Q488.457 204.39 488.693 204.949Q488.929 205.507 489.137 206.076Q489.346 206.645 489.527 207.223Q489.707 207.802 489.859 208.389Q490.011 208.975 490.135 209.569Q490.258 210.162 490.352 210.761Q490.446 211.359 490.511 211.962C491.315 218.884 489.443 225.687 485.02 231.101C480.214 236.986 473.965 239.53 466.62 240.326C461.319 240.941 455.565 239.366 451.21 236.348C445.21 232.189 441.052 225.309 439.996 218.092C439.052 211.645 440.865 205.354 444.842 200.223C449.557 194.139 455.983 191.115 463.474 190.183Z"/>
	<path fill="#ECBC5A" d="M754.346 587.612C761.782 587.034 768.508 588.391 774.698 592.696Q775.282 593.099 775.844 593.531Q776.407 593.963 776.948 594.422Q777.489 594.881 778.006 595.367Q778.523 595.852 779.016 596.363Q779.508 596.874 779.975 597.408Q780.441 597.943 780.88 598.5Q781.32 599.057 781.731 599.635Q782.142 600.214 782.523 600.812Q782.905 601.41 783.257 602.026Q783.608 602.642 783.929 603.275Q784.249 603.908 784.538 604.556Q784.826 605.204 785.083 605.866Q785.339 606.527 785.561 607.201Q785.784 607.874 785.973 608.558Q786.162 609.242 786.317 609.934Q786.472 610.627 786.592 611.326Q786.731 612.078 786.832 612.836Q786.933 613.594 786.995 614.356Q787.058 615.118 787.082 615.883Q787.106 616.647 787.091 617.411Q787.077 618.176 787.024 618.939Q786.971 619.702 786.879 620.461Q786.788 621.22 786.658 621.974Q786.529 622.728 786.361 623.474Q786.194 624.22 785.99 624.957Q785.785 625.693 785.543 626.419Q785.302 627.145 785.024 627.857Q784.746 628.57 784.433 629.267Q784.119 629.965 783.771 630.646Q783.423 631.326 783.041 631.989Q782.659 632.651 782.244 633.294Q781.83 633.936 781.383 634.557C776.8 640.975 770.194 644.996 762.469 646.277C755.303 646.645 748.841 646.214 742.552 642.308C736.13 638.32 731.827 631.992 730.08 624.695C728.167 616.703 729.154 607.77 733.669 600.815C738.595 593.227 745.802 589.558 754.346 587.612Z"/>
	<path fill="#F0D9D5" d="M754.596 590.577C760.933 590.161 766.084 590.954 771.605 594.367Q772.164 594.717 772.704 595.094Q773.244 595.471 773.765 595.876Q774.285 596.28 774.785 596.71Q775.284 597.14 775.761 597.595Q776.238 598.05 776.692 598.528Q777.145 599.006 777.574 599.507Q778.003 600.007 778.406 600.529Q778.809 601.05 779.185 601.592Q779.561 602.133 779.909 602.693Q780.257 603.252 780.577 603.829Q780.896 604.405 781.186 604.997Q781.476 605.589 781.736 606.195Q781.996 606.8 782.224 607.418Q782.453 608.036 782.651 608.665Q782.848 609.294 783.013 609.932Q783.178 610.57 783.311 611.216Q783.457 611.904 783.568 612.598Q783.679 613.292 783.754 613.99Q783.83 614.689 783.87 615.391Q783.91 616.093 783.915 616.795Q783.92 617.498 783.889 618.2Q783.858 618.902 783.791 619.602Q783.725 620.302 783.623 620.997Q783.521 621.693 783.384 622.382Q783.247 623.071 783.076 623.753Q782.904 624.435 782.698 625.107Q782.492 625.779 782.253 626.439Q782.013 627.1 781.74 627.748Q781.467 628.396 781.162 629.029Q780.857 629.662 780.52 630.279Q780.183 630.895 779.815 631.494Q779.448 632.093 779.05 632.673C774.932 638.688 769.62 641.582 762.609 642.933C756.421 643.687 750.896 643.347 745.316 640.259C739.181 636.865 734.85 631.053 733.023 624.32C731.091 617.197 732.042 609.221 735.833 602.863C740.072 595.752 746.87 592.4 754.596 590.577Z"/>
	<path fill="#F15F4A" d="M303.931 373.212Q304.597 373.193 305.264 373.205Q305.93 373.217 306.595 373.259Q307.26 373.301 307.923 373.373Q308.585 373.445 309.244 373.548Q309.902 373.65 310.556 373.782Q311.209 373.915 311.855 374.077Q312.502 374.239 313.14 374.43Q313.779 374.621 314.408 374.842Q315.037 375.062 315.655 375.311Q316.273 375.559 316.88 375.836Q317.486 376.113 318.079 376.417Q318.672 376.721 319.251 377.051Q319.83 377.382 320.393 377.739Q320.956 378.096 321.502 378.478Q322.048 378.86 322.576 379.266Q323.104 379.673 323.613 380.103Q324.171 380.584 324.704 381.092Q325.238 381.6 325.746 382.133Q326.254 382.666 326.736 383.223Q327.218 383.78 327.672 384.36Q328.127 384.94 328.552 385.541Q328.978 386.142 329.374 386.763Q329.77 387.385 330.136 388.024Q330.501 388.664 330.835 389.32Q331.169 389.977 331.471 390.648Q331.773 391.32 332.042 392.006Q332.311 392.692 332.546 393.39Q332.782 394.088 332.983 394.796Q333.184 395.505 333.351 396.222Q333.518 396.94 333.649 397.665Q333.781 398.389 333.878 399.12Q333.974 399.85 334.035 400.584Q334.091 401.353 334.109 402.123Q334.126 402.893 334.106 403.664Q334.086 404.434 334.028 405.202Q333.969 405.971 333.873 406.735Q333.777 407.5 333.644 408.259Q333.51 409.018 333.339 409.769Q333.168 410.521 332.96 411.263Q332.753 412.005 332.508 412.736Q332.264 413.466 331.984 414.184Q331.704 414.902 331.389 415.606Q331.074 416.309 330.725 416.996Q330.376 417.683 329.993 418.352Q329.61 419.02 329.195 419.669Q328.78 420.319 328.333 420.946Q327.886 421.574 327.409 422.179Q326.932 422.784 326.425 423.365C321.07 429.6 313.924 432.939 305.781 433.603C298.207 433.71 291.641 431.537 285.743 426.801C279.574 421.848 275.268 414.966 274.454 406.99C273.628 398.894 275.812 389.921 281.16 383.688C287.041 376.832 295.119 373.763 303.931 373.212Z"/>
	<path fill="#F0D9D5" d="M304.011 376.692Q305.106 376.676 306.198 376.751Q307.29 376.826 308.372 376.991Q309.454 377.157 310.518 377.413Q311.583 377.668 312.623 378.011Q313.662 378.354 314.669 378.783Q315.677 379.211 316.645 379.722Q317.613 380.233 318.535 380.823Q319.457 381.413 320.327 382.078Q320.853 382.47 321.359 382.888Q321.864 383.306 322.348 383.749Q322.831 384.192 323.291 384.66Q323.752 385.127 324.187 385.617Q324.623 386.107 325.033 386.619Q325.443 387.131 325.827 387.664Q326.21 388.196 326.566 388.747Q326.921 389.298 327.248 389.866Q327.576 390.435 327.873 391.02Q328.171 391.604 328.438 392.203Q328.705 392.802 328.942 393.414Q329.178 394.026 329.383 394.649Q329.588 395.272 329.761 395.905Q329.933 396.538 330.073 397.178Q330.214 397.819 330.321 398.466Q330.428 399.113 330.502 399.765Q330.579 400.457 330.622 401.151Q330.665 401.846 330.673 402.542Q330.681 403.237 330.654 403.933Q330.627 404.628 330.566 405.321Q330.505 406.015 330.409 406.704Q330.313 407.393 330.184 408.077Q330.054 408.76 329.89 409.437Q329.726 410.113 329.529 410.781Q329.332 411.448 329.101 412.105Q328.871 412.761 328.609 413.406Q328.346 414.05 328.051 414.681Q327.757 415.311 327.432 415.926Q327.106 416.541 326.75 417.139Q326.395 417.738 326.01 418.317Q325.625 418.897 325.211 419.457Q324.798 420.017 324.357 420.555C319.307 426.704 312.582 429.218 304.929 430.083C298.853 429.821 293.166 428.036 288.279 424.335C282.606 420.04 278.575 413.327 277.725 406.232Q277.649 405.583 277.606 404.931Q277.562 404.279 277.551 403.626Q277.539 402.973 277.56 402.32Q277.58 401.667 277.633 401.016Q277.685 400.364 277.77 399.717Q277.854 399.069 277.971 398.426Q278.087 397.783 278.234 397.146Q278.382 396.51 278.561 395.882Q278.739 395.253 278.949 394.634Q279.158 394.015 279.397 393.408Q279.637 392.8 279.906 392.204Q280.175 391.609 280.473 391.027Q280.771 390.446 281.097 389.88Q281.423 389.314 281.777 388.764Q282.13 388.215 282.51 387.684Q282.89 387.152 283.296 386.64C288.674 379.957 295.779 377.44 304.011 376.692Z"/>
	<path fill="#F6E4BB" d="M104.935 828.539L920.78 828.815Q921.103 861.086 920.959 893.359L104.746 893.512Q105.155 861.026 104.935 828.539Z"/>
	<path d="M399.425 684.922C394.156 667.149 389.701 649.158 384.877 631.265L366.676 564.019C363.737 552.83 360.628 541.707 357.799 530.483C356.212 524.184 354.315 517.719 353.802 511.223C353.053 501.729 354.743 492.757 359.334 484.405C363.99 475.936 370.609 468.178 376.06 460.169L418.362 398.525L460.458 337.141Q466.075 328.999 471.607 320.799C474.096 317.052 476.423 312.996 479.336 309.565C483.345 304.843 488.318 301.288 494.344 299.617C500.741 297.843 507.536 298.072 513.435 301.322C515.691 302.564 517.535 304.777 519.323 306.606C525.429 301.36 531.058 298.182 539.455 298.925C547.445 299.633 554.973 303.951 560.012 310.132C563.984 315.005 567.44 320.582 570.96 325.792L590.274 354.638L639.186 426.321Q651.669 444.814 664.478 463.084C670.355 471.333 677.39 479.607 682.036 488.598C685.823 495.927 687.561 504.096 686.663 512.281C685.559 522.36 681.992 532.394 679.157 542.106L668.224 579.968L648.243 649.557C644.932 661.031 641.946 672.679 638.182 684.01C640.379 688.055 642.748 692.111 643.56 696.707C645.265 706.358 644.141 724.392 644.127 735.065C644.087 765.069 643.45 795.254 644.205 825.243L857.724 825.33Q888.745 825.428 919.766 825.212C930.989 825.142 942.595 824.432 953.775 825.129C955.164 825.216 956.025 825.679 957.058 826.604L957.342 827.738C956.558 828.466 956.351 828.605 955.242 828.734C951.689 829.146 947.731 828.822 944.123 828.824L920.78 828.815L104.935 828.539C93.3448 828.501 81.5526 829.001 69.9897 828.583C68.5696 828.532 67.8381 828.543 66.8767 827.476C66.9265 826.37 66.7203 826.229 67.5005 825.375C72.2079 824.308 78.295 825.088 83.1579 825.109C96.0429 825.163 109.058 825.573 121.929 825.096C125.892 824.525 130.171 824.812 134.18 824.793C140.273 815.1 146.235 804.922 149.864 794.018C143.062 781.392 140.295 765.363 144.387 751.397C148.145 738.568 158.634 729.215 169.913 722.784L170.122 713.009L257.188 713.489L257.161 770.178C257.171 780.918 258.437 794.678 256.054 804.901C254.689 810.757 251.199 816.299 246.918 820.462C244.904 822.421 242.685 823.98 240.271 825.406C265.368 825.013 290.51 825.352 315.613 825.371L394.864 825.215L394.812 740.087L394.781 713.503C394.781 707.995 394.502 702.207 395.177 696.74C395.712 692.411 397.553 688.785 399.425 684.922Z"/>
	<path fill="#A7AFC6" d="M169.381 727.426C169.844 729.31 169.67 731.409 169.686 733.35C164.725 736.534 160.099 740.495 156.805 745.434C151.228 753.793 149.738 765.22 151.735 774.945C153.964 785.797 160.035 794.201 169.194 800.289C169.349 802.01 169.613 803.823 169.537 805.549C169.494 806.531 169.588 806.673 168.82 807.339L167.219 806.427C161.199 802.284 156.189 798.192 152.404 791.837C146.09 781.238 144.108 765.213 147.191 753.318C150.29 741.36 159.046 733.424 169.381 727.426Z"/>
	<path fill="#FEFEFE" d="M169.786 736.876C171.123 740.864 170.188 789.156 169.974 796.821C166.902 794.523 164.165 792.111 161.562 789.292C155.747 780.863 153.089 771.485 154.491 761.234C155.968 750.44 161.338 743.356 169.786 736.876Z"/>
	<path fill="#F0D9D5" d="M149.864 794.018C155.686 801.73 161.867 807.69 170.863 811.529C173.752 817.012 177.017 821.205 181.619 825.352L144.132 825.311C136.757 825.305 129.29 825.549 121.929 825.096C125.892 824.525 130.171 824.812 134.18 824.793C140.273 815.1 146.235 804.922 149.864 794.018Z"/>
	<path fill="#A7AFC6" d="M172.663 716.528L253.939 716.716L254.056 771.144C254.078 781.069 255.346 794.291 253.022 803.8C251.813 808.75 249.048 812.949 245.901 816.862C236.914 825.97 226.622 825.266 214.876 825.147C209.467 825.093 204.067 825.181 198.659 825.224C191.254 825.283 185.126 824.339 179.721 818.788C176.488 815.467 173.81 810.882 172.944 806.292C171.352 797.856 172.466 786.941 172.473 778.208L172.663 716.528Z"/>
	<path fill="#FEFEFE" d="M537.81 495.234C546.153 499.957 555.502 526.293 559.367 535.894L564.794 533.52C565.421 534.61 566.068 535.717 566.564 536.875C568.691 541.837 568.041 564.404 567.289 570.379Q567.024 572.578 566.476 574.723Q565.927 576.868 565.104 578.924C561.709 587.39 555.119 593.123 546.79 596.551C538.817 599.833 528.111 599.998 521.271 593.919C519.223 592.098 516.497 588.638 514.076 587.622C513.47 588.683 513.744 589.123 513.866 590.306C515.862 593.401 518.168 595.75 521.309 597.705C529.519 602.814 536.987 602.588 546.017 600.447C545.955 609.988 546.498 619.501 546.543 629.034C546.585 637.814 543.985 644.644 537.728 650.901C531.964 655.559 525.828 658.595 518.265 658.653C510.779 658.71 503.199 655.735 497.895 650.404C494.281 646.771 491.916 642.221 490.778 637.248C488.895 629.021 489.841 619.535 489.843 611.121L489.969 569.307C485.395 569.943 481.29 570.363 476.858 568.612C473.388 567.24 469.802 564.388 468.411 560.83C467.578 558.702 467.753 556.497 468.759 554.461C472.301 547.292 476.428 549.527 482.778 549.076C485.839 548.858 489.364 547.621 492.224 546.538C515.07 537.883 528.306 516.576 537.81 495.234Z"/>
	<path d="M553.246 545.885C553.386 546.128 553.565 546.352 553.666 546.613C554.553 548.908 553.845 553.147 552.738 555.271C551.674 554.107 551.356 552.837 551.283 551.287C551.175 549.002 551.71 547.543 553.246 545.885Z"/>
	<path d="M523.345 546.074C524.222 546.44 524.434 546.608 525.072 547.256C525.758 549.838 525.599 552.257 524.949 554.833L523.437 553.731C522 551.041 522.705 548.885 523.345 546.074Z"/>
	<path d="M539.441 545.169C539.61 545.266 539.793 545.343 539.949 545.46C542.575 547.42 540.937 553.786 541.626 556.799C542.34 559.92 544.913 562.432 545.362 565.707C545.662 567.899 544.868 570.542 543.535 572.289C541.92 574.406 539.269 575.45 536.671 575.635C531.962 575.97 528.792 574.345 525.304 571.38C524.756 570.057 524.485 569.473 524.762 568.01C526.116 567.423 531.449 571.738 533.968 572.477C535.661 572.974 537.39 572.573 538.895 571.707C545.923 567.664 536.184 554.485 539.1 546.073C539.205 545.769 539.327 545.47 539.441 545.169Z"/>
	<path fill="#F15F4A" d="M452.646 599.067C456.475 602.028 459.511 624.725 466.359 631.614C471.891 637.18 479.599 636.181 486.751 636.046C487.645 639.302 488.603 642.558 490.198 645.549Q490.56 646.238 490.957 646.907Q491.353 647.577 491.782 648.226Q492.212 648.875 492.673 649.501Q493.135 650.127 493.627 650.73Q494.12 651.333 494.641 651.91Q495.163 652.487 495.714 653.037Q496.264 653.587 496.841 654.109Q497.419 654.63 498.021 655.123Q498.624 655.615 499.25 656.076Q499.877 656.537 500.526 656.967Q501.175 657.396 501.845 657.792Q502.514 658.188 503.203 658.55Q503.892 658.912 504.598 659.239Q505.304 659.566 506.026 659.857Q506.747 660.149 507.483 660.403Q508.218 660.658 508.965 660.875Q509.736 661.094 510.518 661.275Q511.299 661.457 512.088 661.599Q512.877 661.742 513.673 661.845Q514.468 661.949 515.267 662.013Q516.067 662.077 516.868 662.102Q517.67 662.127 518.472 662.112Q519.274 662.097 520.074 662.043Q520.874 661.989 521.671 661.896Q522.467 661.802 523.258 661.669Q524.049 661.537 524.833 661.366Q525.616 661.194 526.39 660.985Q527.164 660.775 527.927 660.528Q528.69 660.28 529.44 659.995Q530.189 659.711 530.924 659.389Q531.659 659.068 532.377 658.711Q533.095 658.354 533.795 657.962C542.582 652.988 547.165 645.64 549.77 636.06C555.559 636.143 562.046 636.729 567.5 634.432Q568.528 634.01 569.488 633.449Q570.448 632.888 571.321 632.2Q572.193 631.511 572.962 630.709Q573.731 629.906 574.381 629.004C578.416 623.38 583.329 607.006 586.4 599.504C608.114 607.57 631.196 612.965 653.409 619.587C647.199 638.88 641.931 658.721 636.564 678.277L635.615 681.965C630.133 676.765 625.044 674.576 617.468 674.211C604.193 673.572 590.664 674.156 577.36 674.125L490.554 674.075L444.184 674.041C434.705 674.01 424.408 673.176 415.066 674.691C409.603 675.577 405.866 678.89 401.908 682.439C396.552 661.763 390.591 641.195 385.613 620.428C407.557 612.499 431.071 608.012 452.646 599.067Z"/>
	<path fill="#FEFEFE" d="M534.403 302.135C537.614 301.943 540.672 301.948 543.813 302.805C550.074 304.512 554.63 308.776 558.642 313.641C568.238 325.282 577.057 340.668 585.557 353.362L631.023 420.04Q645.172 440.833 659.591 461.44C665.774 470.148 672.754 478.75 677.999 488.037C681.349 493.966 683.809 500.269 683.761 507.172C683.667 520.646 676.506 539.857 672.725 553.048L654.52 616.404L645.119 613.538C625.874 607.971 606.547 602.761 587.523 596.467C593.13 579.721 599.71 563.282 605.811 546.708C609.179 537.558 613.107 528.328 614.91 518.713C616.644 509.464 616.141 500.617 612.695 491.824C609.51 483.695 603.97 476.844 599.579 469.357Q578.716 434.154 557.108 399.404C548.919 386.111 541.13 372.545 533.141 359.129C529.208 352.523 525.418 345.745 521.064 339.406C520.905 330.052 520.508 320.501 521.088 311.166C521.611 310.251 522.143 309.324 522.768 308.473C525.721 304.452 529.697 302.979 534.403 302.135Z"/>
	<path fill="#FEFEFE" d="M499.43 302.161C501.79 301.918 504.404 301.918 506.735 302.323C511.862 303.212 514.959 306.099 517.845 310.182C518.104 320.051 517.761 329.984 517.654 339.858C499.538 369.84 481.803 400.017 463.366 429.815Q451.023 449.603 438.952 469.557C434.931 476.193 430.384 482.882 427.031 489.878C424.01 496.183 422.572 504.098 423.216 511.066C424.025 519.828 428.213 528.957 431.037 537.261C437.705 556.874 444.886 576.229 451.792 595.745C434.721 602.383 416.598 607.17 399.123 612.712L384.587 617.46C379.445 603.055 376.12 587.424 372.137 572.636Q366.954 553.609 362.193 534.472C360.513 527.728 358.557 520.897 357.493 514.024C356.219 505.791 356.825 497.403 360.359 489.787C364.159 481.595 370.188 474.255 375.308 466.85L399.52 431.521L452.497 354.522C461.646 341.103 470.316 326.826 479.934 313.819C485.059 306.888 490.926 303.478 499.43 302.161Z"/>
	<path fill="#F0D9D5" d="M519.558 343.285C524.147 349.426 527.889 356.45 531.804 363.045C539.103 375.338 546.273 387.731 553.751 399.915L591.232 461.201C597.173 471.012 604.183 481.005 609.016 491.393Q609.948 493.438 610.655 495.571Q611.362 497.704 611.836 499.9Q612.309 502.097 612.545 504.331Q612.78 506.566 612.774 508.813C612.741 514.837 611.228 520.83 609.499 526.563C603.588 546.156 595.379 565.404 588.16 584.556C583.429 597.106 579.488 610.42 574.137 622.667C573.175 624.868 571.915 626.966 570.152 628.622C564.61 633.827 556.442 632.851 549.441 632.633L549.139 599.279C552.638 597.577 555.999 595.598 558.942 593.039C566.226 586.707 569.988 577.959 570.644 568.434C572.057 547.907 571.692 520.452 557.37 504.283C545.959 491.399 530.145 486.151 513.373 485.128C499.565 485.598 487.403 489.352 476.744 498.453C465.308 508.218 458.373 521.442 457.275 536.48C456.481 547.347 458.812 559.516 466.32 567.825C471.908 574.009 478.593 575.886 486.614 576.179L486.71 632.546C481.794 632.652 474.797 633.491 470.554 630.704C467.976 629.011 466.247 625.886 465.022 623.134C461.672 615.602 459.388 607.308 456.641 599.521L443.491 563.034L433.179 533.52C430.87 526.876 428.085 520.077 426.878 513.132C425.549 505.488 427.213 497.806 430.238 490.763C432.772 484.859 436.746 479.263 440.058 473.762C448.229 460.189 456.839 446.893 465.05 433.347C475.878 415.485 486.989 397.748 497.653 379.795C504.842 367.691 511.398 354.757 519.558 343.285Z"/>
	<path fill="#FEFEFE" d="M419.745 677.71C466.764 676.916 513.949 677.433 560.977 677.617L600.384 677.566C606.956 677.547 614.13 676.971 620.635 677.855C625.686 678.542 629.867 681.057 633.491 684.572C636.567 687.556 638.965 691.178 639.849 695.402C641.985 705.611 640.823 726.112 640.844 737.475L640.869 825.45L620.25 825.455L398.487 825.341L398.308 738.595L398.311 712.042C398.328 706.576 398.042 700.862 398.878 695.449C399.403 692.054 400.949 689.214 403.062 686.531C407.448 680.962 412.865 678.428 419.745 677.71Z"/>
	<path fill="#ECBC5A" d="M515.173 735.576C517.685 735.328 520.263 735.068 522.713 735.83Q523.533 736.093 524.321 736.438Q525.11 736.784 525.859 737.208Q526.609 737.632 527.311 738.13Q528.013 738.628 528.661 739.195Q529.309 739.762 529.896 740.392Q530.482 741.023 531.001 741.709Q531.521 742.396 531.967 743.132Q532.414 743.868 532.783 744.646C534.665 748.633 534.678 753.219 533.042 757.289C531.063 762.214 527.384 764.78 522.688 766.769C519.141 767.038 516.035 767.304 512.66 765.866Q511.926 765.547 511.227 765.156Q510.528 764.766 509.872 764.307Q509.215 763.849 508.608 763.327Q508.001 762.805 507.449 762.226Q506.897 761.646 506.405 761.014Q505.914 760.382 505.488 759.704Q505.062 759.026 504.706 758.309Q504.35 757.592 504.067 756.843C502.486 752.745 502.515 748.138 504.473 744.168C506.763 739.525 510.449 737.217 515.173 735.576Z"/>
	<path fill="#FEFEFE" d="M516.246 739.023C518.77 738.884 521.017 738.925 523.399 739.869Q523.962 740.088 524.499 740.365Q525.036 740.642 525.541 740.974Q526.046 741.306 526.513 741.688Q526.981 742.071 527.405 742.501Q527.83 742.931 528.207 743.402Q528.585 743.874 528.911 744.383Q529.236 744.892 529.507 745.432Q529.777 745.972 529.99 746.538Q530.208 747.13 530.364 747.742Q530.521 748.353 530.614 748.977Q530.708 749.601 530.738 750.232Q530.768 750.862 530.733 751.492Q530.699 752.123 530.601 752.746Q530.503 753.369 530.342 753.98Q530.181 754.59 529.959 755.181Q529.738 755.772 529.457 756.337C527.396 760.392 524.356 761.951 520.184 763.202C518.087 763.359 516.111 763.196 514.134 762.419C510.974 761.175 508.512 758.766 507.297 755.58Q507.083 755.019 506.926 754.44Q506.769 753.861 506.67 753.269Q506.571 752.677 506.532 752.078Q506.492 751.479 506.513 750.88Q506.533 750.28 506.612 749.685Q506.692 749.09 506.83 748.507Q506.969 747.923 507.164 747.355Q507.36 746.788 507.611 746.243C509.397 742.343 512.34 740.428 516.246 739.023Z"/>
</svg>
