<svg xmlns="http://www.w3.org/2000/svg" width="211" height="51" viewBox="0 0 211 51" fill="none"><path d="M3.90696 42.7599C0.168617 40.602 -1.10888 35.8196 1.04896 32.0854L17.9185 2.93225L17.9594 2.8544C19.8634 -0.797918 25.1044 -0.752843 26.9469 2.93225L41.8265 28.7074C42.1705 29.3011 41.7406 30.0422 41.0568 30.0422H35.5496C34.3213 30.0422 33.1912 29.387 32.5769 28.3266L23.9293 13.3447C23.266 12.19 21.5995 12.19 20.9321 13.3447L3.90693 42.764L3.90696 42.7599Z" fill="#0F3A92"></path><path d="M19.1833 42.7968H55.9892C55.9892 47.1125 52.4883 50.6133 48.1727 50.6133H11.6698C7.65715 50.6133 5.15126 46.269 7.15761 42.7968L21.5459 17.8774C21.8898 17.2837 22.7496 17.2837 23.0895 17.8774L25.8328 22.6803C26.4389 23.7408 26.4347 25.0429 25.8246 26.0992L17.6847 40.1968C17.0173 41.3515 17.8526 42.7927 19.1833 42.7927" fill="#1D70BE"></path><path d="M51.7924 40.3808H21.8941C21.2021 40.3808 20.7763 39.6274 21.1325 39.0337L24.0069 34.2308C24.6252 33.1949 25.743 32.5602 26.9508 32.5602H44.3485C45.667 32.5602 46.4982 31.1476 45.8636 29.993L29.8989 1.03221C33.6168 -1.11739 38.3746 0.201033 40.4587 3.95982L56.3047 32.5561C58.311 36.0324 55.8051 40.3768 51.7924 40.3768" fill="#3FB228"></path><path d="M66.5574 39.738H64.4609V37.4041H66.5574V36.7326C66.5574 34.1203 68.2647 32.6299 70.8116 32.6299C71.1556 32.6299 71.6551 32.6749 71.9335 32.7364V34.9843C71.6756 34.9392 71.3276 34.9187 71.135 34.9187C69.9026 34.9187 69.1492 35.5452 69.1492 36.7326V37.4041H71.7861V39.738H69.1492V49.049H66.5574V39.738Z" fill="#1D70BE"></path><path d="M83.407 37.404V49.0448H80.9463V47.7059C80.2993 48.7214 79.1119 49.3027 77.687 49.3027C75.0952 49.3027 73.2812 47.3169 73.2812 44.635V37.3999H75.8731V44.3115C75.8731 45.8879 76.868 46.9034 78.3585 46.9034C79.8489 46.9034 80.8193 45.8879 80.8193 44.3115V37.3999H83.4111L83.407 37.404Z" fill="#1D70BE"></path><path d="M96.0381 41.4862V49.0448H93.4462V42.1331C93.4462 40.5568 92.4513 39.5414 90.9855 39.5414C89.5196 39.5414 88.5001 40.5568 88.5001 42.1331V49.0448H85.9082V37.4039H88.3485V38.8084C88.9955 37.7274 90.2075 37.146 91.6528 37.146C94.2447 37.146 96.0381 38.9394 96.0381 41.4862Z" fill="#1D70BE"></path><path d="M109.861 32.9575V49.049H107.4V47.6897C106.536 48.7256 105.132 49.3111 103.576 49.3111C100.227 49.3111 97.6797 46.6742 97.6797 43.243C97.6797 39.8117 100.272 37.1503 103.555 37.1503C105.111 37.1503 106.45 37.7113 107.269 38.7062V32.9616H109.861L109.861 32.9575ZM107.269 43.2389C107.269 41.1015 105.824 39.5456 103.834 39.5456C101.844 39.5456 100.378 41.1015 100.378 43.2389C100.378 45.3762 101.823 46.9117 103.834 46.9117C105.844 46.9117 107.269 45.4008 107.269 43.2389Z" fill="#1D70BE"></path><path d="M111.61 46.0435L113.62 45.073C114.226 46.457 115.368 47.1899 116.752 47.1899C117.919 47.1899 118.673 46.6494 118.673 45.851C118.673 45.0526 117.854 44.7045 117.137 44.5121L115.151 43.9921C113.12 43.4312 112.105 42.2437 112.105 40.6673C112.105 38.5709 113.853 37.146 116.425 37.146C118.714 37.146 120.527 38.2884 121.24 40.1473L119.209 41.0972C118.775 39.9958 117.739 39.3243 116.421 39.3243C115.34 39.3243 114.672 39.8197 114.672 40.5568C114.672 41.2938 115.405 41.6582 116.077 41.8547L118.148 42.4362C120.159 42.9971 121.236 44.1641 121.236 45.7855C121.236 47.8819 119.401 49.3068 116.744 49.3068C114.324 49.3068 112.338 48.0743 111.605 46.0475" fill="#1D70BE"></path><path d="M136.943 41.4862V49.0448H134.351V42.1331C134.351 40.5568 133.356 39.5414 131.89 39.5414C130.424 39.5414 129.404 40.5568 129.404 42.1331V49.0448H126.812V37.4039H129.253V38.8084C129.9 37.7274 131.112 37.146 132.557 37.146C135.149 37.146 136.943 38.9394 136.943 41.4862Z" fill="#1D70BE"></path><path d="M149.836 43.9716H141.282C141.414 45.8306 142.773 47.018 144.566 47.018C145.95 47.018 146.88 46.3465 147.396 45.3965L149.533 46.4324C148.82 48.0948 146.921 49.3068 144.542 49.3068C141.02 49.3068 138.58 46.629 138.58 43.2141C138.58 39.7993 141.065 37.146 144.345 37.146C147.625 37.146 149.959 39.7174 149.959 42.8046C149.959 43.2141 149.918 43.6236 149.828 43.9716M147.17 41.9612C147.084 40.4053 145.832 39.3038 144.341 39.3038C142.851 39.3038 141.618 40.2538 141.315 41.9612H147.17Z" fill="#1D70BE"></path><path d="M152.773 45.1388V39.7381H150.656V37.4042H151C152.122 37.4042 152.773 36.7777 152.773 35.6558V33.7969H155.365V37.4042H158.129V39.7381H155.365V45.1388C155.365 46.1338 155.774 47.0591 157.416 47.0591C157.633 47.0591 157.912 47.0386 158.194 46.9936V49.0654C157.785 49.1309 157.265 49.1719 156.855 49.1719C154.243 49.1719 152.773 47.702 152.773 45.1347" fill="#1D70BE"></path><path d="M177.156 37.4043L173.114 49.0492H170.805L168.062 40.7086L165.298 49.0492H162.964L158.947 37.4043H161.691L164.151 45.2249L166.616 37.4043H169.487L171.952 45.2249L174.392 37.4043H177.156Z" fill="#1D70BE"></path><path d="M177.713 43.2141C177.713 39.6928 180.391 37.146 183.826 37.146C187.261 37.146 189.939 39.6928 189.939 43.2141C189.939 46.7354 187.216 49.3068 183.826 49.3068C180.436 49.3068 177.713 46.7354 177.713 43.2141ZM187.237 43.2346C187.237 41.0973 185.792 39.5414 183.826 39.5414C181.861 39.5414 180.415 41.0973 180.415 43.2346C180.415 45.3719 181.84 46.9074 183.826 46.9074C185.812 46.9074 187.237 45.3719 187.237 43.2346Z" fill="#1D70BE"></path><path d="M198.448 37.2773V39.6112H197.043C195.446 39.6112 194.365 40.6471 194.365 42.461V49.0491H191.773V37.4084H194.214V39.0298C194.82 37.7564 195.942 37.2814 197.367 37.2814H198.448L198.448 37.2773Z" fill="#1D70BE"></path><path d="M206.157 42.0924L210.411 49.049H207.541L204.47 43.9514L202.656 45.9167V49.049H200.064V32.9575H202.656V42.4159L207.365 37.4042H210.411L206.157 42.0924Z" fill="#1D70BE"></path><path d="M81.9321 15.6498V29.0594H77.723V26.8238C76.2325 28.6132 74.1854 29.5057 71.7654 29.5057C67.2941 29.5057 64.4648 26.9712 64.4648 23.5482C64.4648 20.5674 66.811 18.5938 70.8729 17.7011L77.4651 16.2845V15.6498C77.4651 13.7868 75.9378 12.5584 73.7022 12.5584C71.4665 12.5584 69.8287 13.7499 69.0836 15.6498L65.2101 13.7131C66.3647 10.6585 69.7181 8.5376 73.7021 8.5376C78.5828 8.5376 81.9321 11.4816 81.9321 15.6498ZM77.4609 20.9768V19.6748L71.7614 20.94C70.0866 21.3126 69.1161 22.2789 69.1161 23.5114C69.1161 25.0386 70.3445 25.968 72.2814 25.968C75.2621 25.968 77.4568 23.8103 77.4568 20.9768" fill="#102147"></path><path d="M105.394 1.31055V29.0552H101.148V26.709C99.6572 28.4984 97.2374 29.5015 94.5554 29.5015C88.7821 29.5015 84.3887 24.9566 84.3887 19.0359C84.3887 13.1152 88.8599 8.53336 94.5186 8.53336C97.2005 8.53336 99.5098 9.49966 100.927 11.2153V1.31055H105.398H105.394ZM100.922 19.0399C100.922 15.3549 98.4288 12.6729 95.0018 12.6729C91.5746 12.6729 89.0442 15.3549 89.0442 19.0399C89.0442 22.725 91.5377 25.3701 95.0018 25.3701C98.4657 25.3701 100.922 22.7619 100.922 19.0399Z" fill="#102147"></path><path d="M127.628 8.98389L119.697 29.0594H115.713L107.814 8.98389H112.544L117.723 23.0978L122.899 8.98389H127.628Z" fill="#102147"></path><path d="M145.692 15.6498V29.0594H141.483V26.8238C139.992 28.6132 137.945 29.5057 135.525 29.5057C131.054 29.5057 128.225 26.9712 128.225 23.5482C128.225 20.5674 130.571 18.5938 134.633 17.7011L141.225 16.2845V15.6498C141.225 13.7868 139.698 12.5584 137.462 12.5584C135.226 12.5584 133.588 13.7499 132.843 15.6498L128.97 13.7131C130.125 10.6585 133.478 8.5376 137.462 8.5376C142.343 8.5376 145.692 11.4816 145.692 15.6498ZM141.221 20.9768V19.6748L135.521 20.94C133.846 21.3126 132.876 22.2789 132.876 23.5114C132.876 25.0386 134.104 25.968 136.041 25.968C139.022 25.968 141.217 23.8103 141.217 20.9768" fill="#102147"></path><path d="M166.735 16.0224V29.0595H162.264V17.1403C162.264 14.4214 160.552 12.6731 158.018 12.6731C155.483 12.6731 153.735 14.4214 153.735 17.1403V29.0595H149.268V8.98392H153.477V11.4038C154.595 9.5408 156.679 8.5376 159.176 8.5376C163.648 8.5376 166.735 11.629 166.735 16.0224Z" fill="#102147"></path><path d="M169.564 19.0032C169.564 13.0047 173.958 8.5376 179.883 8.5376C184.129 8.5376 187.63 10.9206 188.858 14.3109L184.984 16.2477C184.202 14.0857 182.303 12.6731 179.883 12.6731C176.607 12.6731 174.22 15.3182 174.22 19.0401C174.22 22.7621 176.603 25.3703 179.883 25.3703C182.339 25.3703 184.202 23.9904 184.984 21.7957L188.858 23.7693C187.666 27.0449 184.166 29.5057 179.883 29.5057C173.999 29.5057 169.564 24.9977 169.564 19.0032Z" fill="#102147"></path><path d="M209.978 20.3051H195.23C195.455 23.5071 197.801 25.5584 200.892 25.5584C203.275 25.5584 204.876 24.4038 205.773 22.766L209.458 24.5553C208.23 27.4214 204.95 29.5097 200.855 29.5097C194.783 29.5097 190.578 24.8911 190.578 19.0072C190.578 13.1233 194.861 8.5415 200.524 8.5415C206.187 8.5415 210.207 12.9718 210.207 18.2988C210.207 19.0072 210.134 19.7155 209.982 20.3092M205.4 16.8452C205.253 14.1633 203.091 12.2635 200.52 12.2635C197.948 12.2635 195.827 13.9012 195.307 16.8452H205.4Z" fill="#102147"></path></svg>