<svg width="103" height="52" viewBox="0 0 103 52" fill="none" xmlns="http://www.w3.org/2000/svg">
<path d="M8.03122 11.1781C7.39592 9.5635 7.67172 7.707 8.25692 6.1456C8.87262 4.5026 9.94472 2.8641 11.5471 2C11.6266 3.7314 11.0977 5.442 10.5198 6.9845C10.0001 8.3719 9.36242 9.85 8.30942 10.9974C8.14762 11.8668 8.02362 12.7338 7.93642 13.5968C8.28542 12.6851 8.85132 11.8541 9.55742 11.1859C10.4665 10.3255 11.8188 9.6616 13.0882 10.0542C12.7164 11.4574 11.8689 12.8025 10.8652 13.7461C10.0752 14.4888 9.03232 15.4405 7.80392 15.4779C7.75332 16.7479 7.78192 18.0063 7.88642 19.2476C8.05972 18.3392 8.43102 17.4838 8.96752 16.8468C9.70452 15.9715 10.7973 14.9021 12.1929 15.081C12.1167 16.5012 11.5502 17.9563 10.7613 19.0497C10.1344 19.9186 9.30682 21.026 8.13212 21.3121C8.32022 22.5318 8.58222 23.7313 8.91462 24.905C8.91782 24.0063 9.11632 23.1242 9.51012 22.4167C10.0651 21.419 10.9295 20.1748 12.3267 20.0775C12.5315 21.4708 12.254 22.9939 11.6942 24.2053C11.2468 25.1736 10.6503 26.4084 9.56302 26.9193C10.0196 28.1821 10.5599 29.4096 11.1794 30.5944C10.9619 29.5732 10.9706 28.4971 11.228 27.5289C11.5827 26.1941 12.4632 24.792 13.8768 24.3851C14.3765 25.8587 14.3076 27.5033 14.0173 29.0011C13.7784 30.2343 13.309 31.6827 12.2568 32.4838C12.9447 33.5939 13.7057 34.6593 14.5356 35.673C14.0897 34.6788 13.8681 33.5915 13.987 32.596C14.1602 31.1458 14.5677 29.5944 16.049 28.8212C16.8894 30.2712 17.0841 31.8979 17.1555 33.5046C17.2132 34.8035 17.0261 36.4056 16.124 37.4623C17.1163 38.494 18.187 39.4596 19.3306 40.35C18.5923 39.4029 18.0753 38.2915 17.9658 37.1924C17.8112 35.6395 17.8868 33.93 19.2649 32.7904C20.4435 34.0214 21.1468 35.8343 21.4915 37.4089C21.7963 38.8011 22.1145 40.4489 21.3888 41.819C22.8442 42.769 24.3979 43.606 26.0406 44.3148C24.8847 43.4911 23.9385 42.361 23.4877 41.1942C22.897 39.6647 22.5316 37.8422 23.6823 36.3104C25.224 37.2979 26.3571 38.9827 27.2498 40.5193C28.0158 41.8378 28.8087 43.6576 28.4153 45.2279C29.3248 45.5365 30.2578 45.8075 31.2131 46.0387L31.1563 46.2732C30.1974 46.0411 29.2608 45.7692 28.3476 45.4597C27.7078 47.3504 25.6119 47.975 23.9169 48.2508C21.5018 48.6437 18.6261 47.8824 16.5643 46.3488C17.6525 44.8109 19.8728 44.6549 21.547 44.5372L21.5688 44.5357C23.4029 44.4068 25.3866 44.579 27.231 45.0582C25.1003 44.2471 23.1066 43.2273 21.2682 42.0284L21.2411 42.0712C20.2337 43.7047 18.2111 43.7684 16.6235 43.6651C14.4692 43.5249 11.982 42.215 10.5425 40.4043C11.8965 39.2163 13.8964 39.5488 15.446 39.8064L15.4535 39.8076C17.183 40.0951 19.0729 40.7223 20.6593 41.688C20.5082 41.569 20.3603 41.4431 20.2166 41.3111C18.6742 40.2114 17.2514 38.9813 15.9603 37.6401C15.9453 37.6551 15.9301 37.67 15.9148 37.6848C14.6594 38.9477 12.831 38.617 11.4041 38.206C9.49462 37.656 7.51432 35.9967 6.56532 34.0918C8.03592 33.2678 9.79412 33.9468 11.1617 34.4839C12.6627 35.0734 14.2508 36.0164 15.4719 37.2185C15.346 37.0597 15.2259 36.8938 15.1124 36.7221C13.9774 35.4411 12.9564 34.0694 12.0588 32.6223L12.0138 32.6505C10.5936 33.567 8.98452 32.9033 7.70922 32.2506C5.98012 31.3657 4.59062 29.4209 3.99022 27.5083C5.52412 27.017 7.03962 27.9813 8.21772 28.745C9.50622 29.5802 10.8114 30.7714 11.7073 32.1375C11.6415 32.0029 11.5802 31.8653 11.5237 31.7251C10.6629 30.2233 9.93162 28.6467 9.33962 27.0112L9.30912 27.0216L9.30662 27.0225C8.01532 27.5134 6.57732 26.7502 5.63982 25.9132C4.33682 24.75 3.41842 22.9617 3.20312 21.2146C4.54942 21.0402 5.81782 22.0818 6.68502 22.9702C7.68322 23.9927 8.57912 25.2012 9.12992 26.5435C9.08972 26.3977 9.05522 26.2496 9.02622 26.1C8.52502 24.5631 8.14532 22.9781 7.89502 21.3577L7.87552 21.3601L7.86892 21.3612C6.50372 21.5891 5.24152 20.5512 4.48742 19.5439C3.42942 18.1304 2.88402 16.1741 3.02072 14.401C4.38062 14.4961 5.41612 15.7898 6.08762 16.8363C6.86482 18.0478 7.50932 19.4189 7.79162 20.8533C7.78302 20.7392 7.77792 20.6244 7.77612 20.5093C7.56882 18.8601 7.49492 17.1771 7.56252 15.4733L7.55862 15.4731C6.17062 15.4231 5.14482 14.1344 4.61522 12.9913C3.85742 11.3555 3.73542 9.2878 4.24122 7.5452C5.56412 7.9165 6.30162 9.434 6.73692 10.6021C7.23882 11.9489 7.58912 13.4178 7.59192 14.8782C7.66412 13.653 7.80952 12.4181 8.03122 11.1781Z" fill="#394149"/>
<path d="M35.3685 8.15552V14.0053C35.3685 16.5782 33.0383 17.8161 29.5066 17.8161C26.2055 17.8161 23.8389 16.5904 23.8389 13.7019V8.15552H27.1279V13.7019C27.1279 14.7335 28.0138 15.3767 29.6401 15.3767C31.1936 15.3767 32.116 14.7092 32.116 13.714V8.15552H35.3685Z" fill="#394149"/>
<path d="M46.3224 15.1461V17.6826H37.2322V8.15552H40.5212V15.1461H46.3224Z" fill="#394149"/>
<path d="M56.0968 10.5464V8.15552H44.7249V10.5464H48.7421V17.6826H52.0675V10.5464H56.0968Z" fill="#394149"/>
<path fill-rule="evenodd" clip-rule="evenodd" d="M67.7629 9.12652C68.1999 9.57552 68.4069 10.1945 68.4069 11.0561C68.4069 11.7965 68.2249 12.4276 67.9209 12.8523C67.5809 13.3135 67.0589 13.7019 66.4159 13.799L69.2929 17.6826H65.6759L63.3089 14.3208H60.3601V17.6826H57.1196V8.15552H64.7049C66.2099 8.15552 67.1929 8.51962 67.7629 9.12652ZM65.1419 11.8572C65.2269 11.7115 65.2509 11.5173 65.2509 11.3596C65.2509 11.1775 65.2269 10.9833 65.1419 10.862C64.9719 10.5464 64.6319 10.4615 64.1219 10.4615H60.3722V12.197H64.1829C64.7049 12.197 65.0209 12.0999 65.1419 11.8572Z" fill="#394149"/>
<path fill-rule="evenodd" clip-rule="evenodd" d="M73.6711 15.9229H78.8171L79.6541 17.6826H83.1621L78.3561 8.15552H74.4361L69.3511 17.6826H72.7851L73.6711 15.9229ZM77.7851 13.7868H74.7391L75.9411 11.4931L76.3051 10.6192L76.6451 11.4809L77.7851 13.7868Z" fill="#394149"/>
<path fill-rule="evenodd" clip-rule="evenodd" d="M67.4161 19.4768C65.3801 19.4768 64.3091 20.4418 64.3091 21.8598C64.3091 23.4603 65.4331 24.2722 67.4161 24.2722C69.5991 24.2722 70.5171 23.3308 70.5171 21.8598C70.5171 20.3653 69.4811 19.4768 67.4161 19.4768ZM67.4161 23.0896C66.2571 23.0896 65.9211 22.613 65.9211 21.8775C65.9211 21.1538 66.2861 20.6772 67.4101 20.6772C68.6401 20.6772 68.9161 21.2126 68.9161 21.8775C68.9161 22.5836 68.5811 23.0896 67.4161 23.0896Z" fill="#394149"/>
<path d="M61.2914 24.2017V21.4657H58.22V22.4601H59.8616C59.8499 22.5366 59.791 22.6837 59.7145 22.7719C59.5439 22.972 59.0908 23.1485 58.5024 23.1485C57.8905 23.1485 57.4963 22.9896 57.2845 22.7425C57.1433 22.5601 57.0609 22.3012 57.0609 21.9129C57.0609 21.5069 57.1433 21.2304 57.3021 21.048C57.5316 20.7891 57.9199 20.6773 58.4907 20.6773C59.0026 20.6773 59.3556 20.7949 59.5204 20.942C59.6263 21.0303 59.7086 21.1539 59.7263 21.2362H61.2502C61.2444 21.0891 61.1973 20.8538 61.1149 20.6832C60.7501 19.9418 59.9028 19.5005 58.4613 19.5005C57.208 19.5005 56.3666 19.8829 55.9018 20.4596C55.5958 20.8538 55.4546 21.348 55.4546 21.9011C55.4546 22.5131 55.6193 23.0367 55.89 23.3839C56.3489 23.9782 57.1668 24.2723 58.1494 24.2723C59.0144 24.2723 59.6086 24.0664 59.9852 23.7546L60.0264 24.2017H61.2914Z" fill="#394149"/>
<path d="M45.2632 21.4068C46.4576 21.5362 46.9695 21.9599 46.9695 22.766C46.9695 23.7427 46.0163 24.2722 44.1393 24.2722C42.3918 24.2722 41.6387 23.778 41.3503 23.1308C41.2856 22.9778 41.2562 22.7895 41.2385 22.6718H42.9331C42.9449 22.7424 42.9861 22.8483 43.0449 22.9189C43.1861 23.0896 43.5803 23.1896 44.2511 23.1896C45.1161 23.1896 45.322 23.066 45.322 22.8366C45.322 22.5894 45.1102 22.5365 44.3276 22.4541C44.0158 22.4247 43.5215 22.3776 43.3156 22.36C41.8211 22.2246 41.268 21.7598 41.268 20.9655C41.268 20.1417 42.2447 19.5122 44.0275 19.5122C45.6103 19.5122 46.3458 19.9829 46.6518 20.5713C46.7459 20.7478 46.8047 20.9478 46.8224 21.089H45.1278C45.1219 21.0243 45.0984 20.9596 45.0337 20.8772C44.9042 20.7066 44.5747 20.5948 43.9863 20.5948C43.1567 20.5948 42.939 20.6948 42.939 20.9066C42.939 21.142 43.2156 21.195 44.1393 21.295C44.4982 21.3244 45.069 21.3832 45.2632 21.4068Z" fill="#394149"/>
<path fill-rule="evenodd" clip-rule="evenodd" d="M28.3708 19.977C28.6826 20.2241 28.8591 20.6419 28.8591 21.2479C28.8591 21.7422 28.7356 22.1128 28.5002 22.3717C28.1825 22.7365 27.6588 22.9013 26.9763 22.9072C26.7644 22.9131 24.9522 22.9072 24.9522 22.9072V24.2016H23.3694V19.5828H26.9527C27.5882 19.5828 28.0707 19.7122 28.3708 19.977ZM27.1999 21.6068C27.2469 21.5245 27.2705 21.4185 27.2705 21.2714C27.2705 21.1185 27.241 20.989 27.1881 20.9184C27.0881 20.7713 26.8998 20.7007 26.5938 20.7007H24.9404V21.8304H26.582C26.9115 21.8304 27.1057 21.7539 27.1999 21.6068Z" fill="#394149"/>
<path fill-rule="evenodd" clip-rule="evenodd" d="M34.649 20.0535C34.8609 20.2712 34.9609 20.5713 34.9609 20.989C34.9609 21.3479 34.8726 21.6539 34.7255 21.8598C34.5608 22.0834 34.3078 22.2717 33.9959 22.3188L35.3904 24.2016H33.637L32.4896 22.5718H31.0598V24.2016H29.4888V19.5828H33.1663C33.8959 19.5828 34.3725 19.7593 34.649 20.0535ZM33.3781 21.3774C33.4193 21.3068 33.431 21.2126 33.431 21.1361C33.431 21.0479 33.4193 20.9537 33.3781 20.8949C33.2957 20.7419 33.131 20.7007 32.8839 20.7007H31.0657V21.5421H32.9133C33.1663 21.5421 33.3193 21.495 33.3781 21.3774Z" fill="#394149"/>
<path d="M40.7615 24.2016V23.0543H37.4489V22.4541H40.6262V21.3303H37.4489V20.736H40.7203V19.5828H35.8955V24.2016H40.7615Z" fill="#394149"/>
<path d="M52.6951 20.7419V19.5828H47.1819V20.7419H49.1294V24.2016H50.7416V20.7419H52.6951Z" fill="#394149"/>
<path d="M54.8151 19.5828V24.2016H53.197V19.5828H54.8151Z" fill="#394149"/>
<path d="M63.6699 19.5828V24.2016H62.0515V19.5828H63.6699Z" fill="#394149"/>
<path d="M76.7599 19.5828V22.4188C76.7599 23.6662 75.6299 24.2664 73.9179 24.2664C72.3179 24.2664 71.1699 23.6721 71.1699 22.2717V19.5828H72.7649V22.2717C72.7649 22.7718 73.1939 23.0837 73.9829 23.0837C74.7359 23.0837 75.1829 22.7601 75.1829 22.2776V19.5828H76.7599Z" fill="#394149"/>
<path d="M83.1121 22.766C83.1121 21.9599 82.6001 21.5362 81.4061 21.4068C81.2111 21.3832 80.6411 21.3244 80.2821 21.295C79.3581 21.195 79.0811 21.142 79.0811 20.9066C79.0811 20.6948 79.2991 20.5948 80.1291 20.5948C80.7171 20.5948 81.0471 20.7066 81.1761 20.8772C81.2411 20.9596 81.2641 21.0243 81.2701 21.089H82.9651C82.9471 20.9478 82.8881 20.7478 82.7941 20.5713C82.4881 19.9829 81.7531 19.5122 80.1701 19.5122C78.3871 19.5122 77.4101 20.1417 77.4101 20.9655C77.4101 21.7598 77.9641 22.2246 79.4581 22.36L79.5541 22.3685L79.7141 22.3831L80.4701 22.4541C81.2531 22.5365 81.4641 22.5894 81.4641 22.8366C81.4641 23.066 81.2591 23.1896 80.3941 23.1896C79.7231 23.1896 79.3291 23.0896 79.1871 22.9189C79.1291 22.8483 79.0871 22.7424 79.0761 22.6718H77.3811C77.3991 22.7895 77.4281 22.9778 77.4931 23.1308C77.7811 23.778 78.5341 24.2722 80.2821 24.2722C82.1591 24.2722 83.1121 23.7427 83.1121 22.766Z" fill="#394149"/>
<path fill-rule="evenodd" clip-rule="evenodd" d="M41.9666 25.9702C40.6435 25.9702 39.9475 26.5974 39.9475 27.519C39.9475 28.5591 40.6779 29.0868 41.9666 29.0868C43.3854 29.0868 43.9819 28.475 43.9819 27.519C43.9819 26.5477 43.3089 25.9702 41.9666 25.9702ZM41.9666 28.3182C41.2133 28.3182 40.9953 28.0084 40.9953 27.5304C40.9953 27.0601 41.2324 26.7503 41.9628 26.7503C42.762 26.7503 42.9418 27.0983 42.9418 27.5304C42.9418 27.9893 42.7238 28.3182 41.9666 28.3182Z" fill="#394149"/>
<path d="M34.6085 28.1079C34.6085 27.584 34.2758 27.3086 33.4995 27.2245C33.3733 27.2092 33.0024 27.171 32.7691 27.1519C32.1687 27.0868 31.989 27.0524 31.989 26.8995C31.989 26.7618 32.1305 26.6968 32.6697 26.6968C33.0521 26.6968 33.2662 26.7694 33.3504 26.8803C33.3924 26.9339 33.4077 26.9759 33.4116 27.018H34.5129C34.5014 26.9262 34.4632 26.7962 34.402 26.6815C34.2031 26.2991 33.7251 25.9932 32.6964 25.9932C31.5378 25.9932 30.903 26.4023 30.903 26.9377C30.903 27.454 31.2624 27.7561 32.2337 27.844C32.3676 27.8555 32.6888 27.8861 32.8915 27.9052C33.4001 27.9587 33.5377 27.9932 33.5377 28.1538C33.5377 28.3029 33.4039 28.3832 32.8418 28.3832C32.4058 28.3832 32.1496 28.3182 32.0578 28.2073C32.0196 28.1614 31.9928 28.0926 31.9852 28.0467H30.8838C30.8953 28.1232 30.9144 28.2455 30.9565 28.345C31.1439 28.7656 31.6334 29.0868 32.7691 29.0868C33.989 29.0868 34.6085 28.7427 34.6085 28.1079Z" fill="#394149"/>
<path fill-rule="evenodd" clip-rule="evenodd" d="M26.973 28.1918C26.973 28.3983 26.9156 28.601 26.8009 28.7348C26.625 28.949 26.2961 29.0407 25.8717 29.0407H23.2063V26.0388H25.799C26.212 26.0388 26.4759 26.1383 26.6212 26.2874C26.7512 26.4174 26.8086 26.5895 26.8086 26.7845C26.8086 26.9796 26.7627 27.1402 26.6633 27.2587C26.5829 27.3582 26.4453 27.4346 26.3 27.4538C26.5141 27.4805 26.7168 27.5876 26.8315 27.7367C26.9271 27.8476 26.973 28.0159 26.973 28.1918ZM25.6843 27.1402C25.7225 27.0981 25.7455 27.0369 25.7455 26.9643C25.7455 26.8916 25.7225 26.8304 25.6728 26.7884C25.6193 26.7386 25.5198 26.7195 25.3745 26.7195H24.2082V27.209H25.4013C25.5313 27.209 25.6308 27.1899 25.6843 27.1402ZM25.5122 28.3601C25.6919 28.3601 25.799 28.3371 25.8602 28.2798C25.8984 28.2415 25.9137 28.1842 25.9137 28.1115C25.9137 28.035 25.8946 27.9777 25.8487 27.9318C25.7914 27.8821 25.6919 27.8591 25.5237 27.8591H24.2082V28.3601H25.5122Z" fill="#394149"/>
<path d="M30.5739 28.2951V29.0407H27.4114V26.0388H30.5471V26.7884H28.4209V27.1746H30.4859V27.905H28.4209V28.2951H30.5739Z" fill="#394149"/>
<path d="M38.3297 26.0388V26.7922H37.0601V29.0407H36.0124V26.7922H34.7466V26.0388H38.3297Z" fill="#394149"/>
<path d="M47.4812 26.0388V26.7998H45.443V27.2243H47.3856V27.9777H45.443V29.0407H44.4143V26.0388H47.4812Z" fill="#394149"/>
<path d="M52.6624 26.7922V26.0388H49.0793V26.7922H50.3451V29.0407H51.3929V26.7922H52.6624Z" fill="#394149"/>
<path d="M56.5719 26.0388V29.0407H55.547V27.9509H54.0097V29.0407H52.9849V26.0388H54.0097V27.1325H55.547V26.0388H56.5719Z" fill="#394149"/>
<path d="M60.3412 29.0407V28.2951H58.1882V27.905H60.2532V27.1746H58.1882V26.7884H60.3144V26.0388H57.1787V29.0407H60.3412Z" fill="#394149"/>
<path d="M66.681 26.0388H67.671L66.574 29.0407H65.45C65.45 29.0407 64.849 27.2473 64.845 27.1975C64.842 27.2473 64.237 29.0407 64.237 29.0407H63.117L61.9927 26.0388H63.105C63.105 26.0388 63.756 27.9279 63.756 27.9738C63.756 27.9279 64.356 26.0388 64.356 26.0388H65.431C65.431 26.0388 66.035 27.9279 66.035 27.9738C66.035 27.9279 66.681 26.0388 66.681 26.0388Z" fill="#394149"/>
<path fill-rule="evenodd" clip-rule="evenodd" d="M69.635 25.9702C68.312 25.9702 67.616 26.5974 67.616 27.519C67.616 28.5591 68.346 29.0868 69.635 29.0868C71.054 29.0868 71.65 28.475 71.65 27.519C71.65 26.5477 70.977 25.9702 69.635 25.9702ZM69.635 28.3182C68.882 28.3182 68.664 28.0084 68.664 27.5304C68.664 27.0601 68.901 26.7503 69.631 26.7503C70.431 26.7503 70.61 27.0983 70.61 27.5304C70.61 27.9893 70.392 28.3182 69.635 28.3182Z" fill="#394149"/>
<path fill-rule="evenodd" clip-rule="evenodd" d="M75.437 26.3448C75.574 26.4863 75.639 26.6813 75.639 26.9528C75.639 27.1861 75.582 27.3849 75.486 27.5188C75.379 27.6641 75.215 27.7865 75.012 27.817L75.918 29.0407H74.779L74.033 27.9815H73.104V29.0407H72.083V26.0388H74.473C74.947 26.0388 75.257 26.1536 75.437 26.3448ZM74.611 27.2052C74.637 27.1593 74.645 27.0981 74.645 27.0484C74.645 26.991 74.637 26.9299 74.611 26.8916C74.557 26.7922 74.45 26.7654 74.289 26.7654H73.108V27.3123H74.308C74.473 27.3123 74.572 27.2817 74.611 27.2052Z" fill="#394149"/>
<path d="M79.1111 29.0407V28.2415H77.2831V26.0388H76.2471V29.0407H79.1111Z" fill="#394149"/>
<path fill-rule="evenodd" clip-rule="evenodd" d="M83.1661 27.4843C83.1661 27.9509 83.1201 28.2033 82.9831 28.4404C82.7761 28.8189 82.3671 29.0407 81.6441 29.0407H79.5181V26.0388H81.6211C82.3401 26.0388 82.7651 26.2415 82.9751 26.5895C83.1241 26.8228 83.1661 27.0713 83.1661 27.4843ZM81.4491 28.3027C81.7741 28.3027 81.9581 28.2262 82.0691 28.058C82.1381 27.9547 82.1571 27.7138 82.1571 27.5035C82.1531 27.3123 82.1301 27.1096 82.0691 27.0178C81.9501 26.8381 81.7711 26.7731 81.4571 26.7731H80.5431V28.3027H81.4491Z" fill="#394149"/>
<path d="M42.1449 43.6404H40.5603C40.5603 43.6404 39.5263 46.6629 39.5263 46.7363C39.5263 46.6629 38.5596 43.6404 38.5596 43.6404H36.8403C36.8403 43.6404 35.8797 46.6629 35.8797 46.7363C35.8797 46.6629 34.8396 43.6404 34.8396 43.6404H33.0591L34.8579 48.4433H36.6506C36.6506 48.4433 37.6173 45.5738 37.6234 45.4943C37.6296 45.5738 38.5901 48.4433 38.5901 48.4433H40.3889L42.1449 43.6404Z" fill="#394149"/>
<path d="M44.3132 48.4433V43.6404H42.6306V48.4433H44.3132Z" fill="#394149"/>
<path d="M50.8578 43.6404V48.4433H49.218L46.838 45.7696V48.4433H45.2595V43.6404H46.9848L49.2914 46.253V43.6404H50.8578Z" fill="#394149"/>
<path d="M57.4125 48.4433V43.6404H55.8462V46.253L53.5396 43.6404H51.8142V48.4433H53.3927V45.7696L55.7728 48.4433H57.4125Z" fill="#394149"/>
<path d="M63.4291 47.2502V48.4433H58.3687V43.6404H63.3861V44.8396H59.984V45.4576H63.2881V46.6262H59.984V47.2502H63.4291Z" fill="#394149"/>
<path fill-rule="evenodd" clip-rule="evenodd" d="M69.8961 45.1027C69.8961 44.6683 69.7921 44.3563 69.5721 44.1299C69.2841 43.824 68.7891 43.6404 68.0301 43.6404H64.2061V48.4433H65.84V46.7485H67.3271L68.5201 48.4433H70.3431L68.8931 46.4855C69.2171 46.4365 69.4801 46.2407 69.6521 46.0082C69.8041 45.7941 69.8961 45.4759 69.8961 45.1027ZM68.3051 45.2557C68.3051 45.3352 68.2931 45.4331 68.2501 45.5065C68.1891 45.6289 68.0301 45.6778 67.7671 45.6778H65.8461V44.8029H67.7361C67.9931 44.8029 68.1651 44.8457 68.2501 45.0048C68.2931 45.066 68.3051 45.1639 68.3051 45.2557Z" fill="#394149"/>
<path d="M37.2596 35.167L36.5961 33.1248L35.9325 35.167H33.7852L35.5224 36.4291L34.8589 38.4713L36.5961 37.2092L38.3332 38.4713L37.6697 36.4291L39.4069 35.167H37.2596Z" fill="#394149"/>
<path d="M44.2564 33.1233L44.9335 35.1655H47.1246L45.352 36.4277L46.0291 38.4698L44.2564 37.2077L42.4838 38.4698L43.1609 36.4277L41.3882 35.1655H43.5793L44.2564 33.1233Z" fill="#394149"/>
<path d="M52.5331 35.1655L51.8561 33.1233L51.179 35.1655H48.9878L50.7605 36.4277L50.0834 38.4698L51.8561 37.2077L53.6287 38.4698L52.9516 36.4277L54.7243 35.1655H52.5331Z" fill="#394149"/>
<path d="M59.4558 33.1233L60.1329 35.1655H62.324L60.5514 36.4277L61.2285 38.4698L59.4558 37.2077L57.6832 38.4698L58.3603 36.4277L56.5876 35.1655H58.7788L59.4558 33.1233Z" fill="#394149"/>
<path d="M67.7799 35.1655L67.1159 33.1233L66.4519 35.1655H64.3049L66.0419 36.4277L65.3789 38.4698L67.1159 37.2077L68.8529 38.4698L68.1899 36.4277L69.9269 35.1655H67.7799Z" fill="#394149"/>
<path d="M95.6381 11.2225C96.2731 9.60799 95.9971 7.75129 95.4121 6.18989C94.7961 4.54699 93.7241 2.90829 92.1221 2.04419C92.0421 3.77569 92.5711 5.48619 93.1491 7.02869C93.6691 8.41599 94.3061 9.89399 95.3591 11.0413C95.5211 11.9105 95.6451 12.7773 95.7321 13.6401C95.3831 12.7288 94.8181 11.8982 94.1121 11.2302C93.2031 10.3697 91.8501 9.70589 90.5811 10.0985C90.9531 11.5016 91.8001 12.8468 92.8041 13.7904C93.5941 14.5331 94.6371 15.4847 95.8651 15.5222C95.9161 16.7923 95.8871 18.0508 95.7821 19.2922C95.6091 18.3838 95.2381 17.5284 94.701 16.8914C93.9641 16.016 92.8711 14.9467 91.4761 15.1256C91.5521 16.5458 92.1191 18.0009 92.9081 19.0943C93.534 19.9632 94.3621 21.0707 95.5371 21.3568C95.3491 22.5763 95.0871 23.7756 94.7541 24.9492C94.7511 24.0506 94.553 23.1685 94.159 22.461C93.604 21.4634 92.7391 20.2191 91.3421 20.1218C91.1371 21.5151 91.4151 23.0382 91.9751 24.2496C92.4221 25.2179 93.0191 26.4527 94.1061 26.9636C93.6491 28.2266 93.1091 29.4544 92.4891 30.6393C92.7071 29.6179 92.6981 28.5416 92.4411 27.5731C92.0861 26.2383 91.2061 24.8361 89.7921 24.4293C89.2921 25.9031 89.3611 27.5475 89.6521 29.0453C89.8911 30.2786 90.3601 31.727 91.4121 32.5281C90.7241 33.6388 89.9631 34.7047 89.1321 35.7189C89.5791 34.7243 89.8001 33.6364 89.6811 32.6405C89.5081 31.1901 89.1011 29.6388 87.6201 28.8658C86.7791 30.3158 86.5841 31.9425 86.5131 33.5492C86.4551 34.8482 86.6421 36.4504 87.5451 37.5072C86.5521 38.5386 85.482 39.5039 84.3391 40.3941C85.0771 39.447 85.5941 38.3357 85.7031 37.2367C85.8581 35.6838 85.7831 33.9744 84.4041 32.8347C83.2261 34.0657 82.5221 35.8786 82.1781 37.4532C81.8731 38.8453 81.5551 40.4932 82.2801 41.8633C80.8251 42.8135 79.2711 43.6506 77.6281 44.3596C78.7841 43.5358 79.7301 42.4055 80.1811 41.2385C80.7721 39.7091 81.1371 37.8865 79.9871 36.3547C78.4451 37.3422 77.3121 39.0269 76.4191 40.5636C75.6531 41.8822 74.8601 43.7021 75.2541 45.2724C74.3441 45.581 73.4111 45.852 72.4561 46.0832L72.5131 46.3177C73.4711 46.0856 74.4081 45.8137 75.3211 45.5042C75.9611 47.3948 78.0571 48.0196 79.7521 48.2953C82.1671 48.6882 85.0431 47.927 87.1051 46.3933C86.0161 44.8554 83.7961 44.6994 82.1221 44.5817L82.1001 44.5802C80.2661 44.4513 78.2821 44.6235 76.4381 45.1028C78.5681 44.2917 80.5621 43.2717 82.4011 42.0727L82.4261 42.1127C83.4331 43.7489 85.4571 43.8129 87.0451 43.7095C89.2001 43.5693 91.6871 42.2594 93.1261 40.4487C91.7721 39.2609 89.7731 39.5932 88.2231 39.8507L88.215 39.8521C86.486 40.1395 84.5971 40.7664 83.0111 41.7318C83.1621 41.6129 83.3091 41.4872 83.4531 41.3553C84.9951 40.2558 86.4171 39.0259 87.7081 37.6849C87.7261 37.7028 87.7441 37.7204 87.7621 37.7379C89.0181 38.991 90.8411 38.6604 92.2651 38.2503C94.1751 37.7003 96.1551 36.041 97.104 34.1361C95.633 33.3121 93.8751 33.991 92.5081 34.5282C91.0051 35.1182 89.4161 36.0623 88.1941 37.266C88.3201 37.107 88.4411 36.9408 88.5551 36.7688C89.6901 35.4871 90.7121 34.1146 91.6101 32.6666L91.6491 32.6907L91.659 32.697C93.0781 33.6102 94.6861 32.9471 95.9601 32.2949C97.6891 31.41 99.0791 29.4652 99.6791 27.5526C98.1451 27.0613 96.6301 28.0256 95.4521 28.7893C94.1621 29.625 92.8561 30.817 91.9601 32.1841C92.0261 32.0492 92.0881 31.9112 92.1451 31.7707C93.0061 30.2684 93.7371 28.6914 94.3291 27.0555L94.3601 27.0659L94.3651 27.0679C95.6561 27.5566 97.0931 26.7939 98.0301 25.9575C99.3321 24.7943 100.251 23.006 100.466 21.2589C99.1201 21.0845 97.8511 22.1261 96.9841 23.0144C95.9861 24.0376 95.0891 25.2469 94.5381 26.5903C94.5791 26.4437 94.6141 26.2948 94.6431 26.1443C95.1441 24.6075 95.5241 23.0226 95.7741 21.4024L95.812 21.4074C97.1721 21.6276 98.4301 20.5927 99.1821 19.5882C100.24 18.1747 100.785 16.2184 100.648 14.4452C99.2891 14.5404 98.2531 15.834 97.5821 16.8806C96.8041 18.0927 96.1591 19.4646 95.8771 20.8999C95.8861 20.7851 95.8911 20.6697 95.8931 20.5539C96.1001 18.9046 96.1741 17.2215 96.1061 15.5177C97.4951 15.469 98.5241 14.1794 99.0541 13.0358C99.8111 11.4001 99.9331 9.33229 99.4281 7.58979C98.1051 7.96109 97.3671 9.47839 96.9321 10.6465C96.4301 11.9933 96.0801 13.4624 96.0771 14.9228C96.0051 13.6976 95.8591 12.4626 95.6381 11.2225Z" fill="#394149"/>
</svg>
