<svg width="74" height="60" viewBox="0 0 74 60" fill="none" xmlns="http://www.w3.org/2000/svg">
<path d="M24.5458 20.6209C24.5458 20.4685 24.5458 18.2512 24.5458 18.2512H23.2282C23.2282 18.2512 23.2282 20.4341 23.2282 20.503C23.2282 20.9061 22.8546 21.1765 22.2253 21.1765C21.5665 21.1765 21.2076 20.9159 21.2076 20.498C21.2076 20.4292 21.2076 18.2512 21.2076 18.2512H19.8752C19.8752 18.2512 19.8752 20.321 19.8752 20.498C19.8752 21.6681 20.8339 22.1647 22.1712 22.1647C23.6019 22.1647 24.5458 21.6632 24.5458 20.6209Z" fill="#394149"/>
<path d="M28.9832 22.1106V21.0831H26.6332V18.2512H25.3008V22.1106H28.9832Z" fill="#394149"/>
<path d="M32.9429 19.2198V18.2512H28.3362V19.2198H29.9635V22.1106H31.3106V19.2198H32.9429Z" fill="#394149"/>
<path d="M34.7143 22.1106V18.2512H33.3623V22.1106H34.7143Z" fill="#394149"/>
<path d="M40.9171 22.1106V18.2512H39.2504L38.1983 20.5669L37.1954 18.2512H35.4746V22.1106H36.7283V20.0261L37.6329 22.1106H38.7539L39.6683 20.0261V22.1106H40.9171Z" fill="#394149"/>
<path d="M43.0053 21.3977H45.0899L45.4292 22.1106H46.85L44.9031 18.2512H43.3151L41.2551 22.1106H42.6464L43.0053 21.3977ZM44.672 20.5324H43.438L43.9247 19.6032L44.0722 19.2493L44.2099 19.5983L44.672 20.5324Z" fill="#394149"/>
<path d="M51.0291 19.2198V18.2512H46.4226V19.2198H48.0499V22.1106H49.3971V19.2198H51.0291Z" fill="#394149"/>
<path d="M55.5091 22.1106V21.1519H52.7421V20.6504H55.3961V19.7114H52.7421V19.2148H55.4751V18.2512H51.4441V22.1106H55.5091Z" fill="#394149"/>
<path d="M29.9233 24.1624H28.6499C28.6499 24.1624 27.819 26.5911 27.819 26.6501C27.819 26.5911 27.0422 24.1624 27.0422 24.1624H25.6607C25.6607 24.1624 24.8888 26.5911 24.8888 26.6501C24.8888 26.5911 24.053 24.1624 24.053 24.1624H22.6223L24.0678 28.0218H25.5083C25.5083 28.0218 26.2851 25.716 26.29 25.6521C26.2949 25.716 27.0668 28.0218 27.0668 28.0218H28.5122L29.9233 24.1624Z" fill="#394149"/>
<path d="M31.6655 28.0218V24.1624H30.3135V28.0218H31.6655Z" fill="#394149"/>
<path d="M36.9244 28.0218V24.1624H35.6658V26.2617L33.8123 24.1624H32.4258V28.0218H33.6943V25.8733L35.6068 28.0218H36.9244Z" fill="#394149"/>
<path d="M42.1914 28.0218V24.1624H40.9328V26.2617L39.0793 24.1624H37.6929V28.0218H38.9613V25.8733L40.8738 28.0218H42.1914Z" fill="#394149"/>
<path d="M47.0256 28.0218V27.0631H44.2577V26.5616H46.9125V25.6226H44.2577V25.126H46.9912V24.1624H42.9597V28.0218H47.0256Z" fill="#394149"/>
<path d="M52.223 25.3374C52.223 24.9884 52.139 24.7376 51.962 24.5557C51.731 24.3099 51.333 24.1624 50.723 24.1624H47.6506V28.0218H48.9633V26.66H50.158L51.117 28.0218H52.582L51.417 26.4485C51.677 26.4092 51.889 26.2519 52.026 26.0651C52.149 25.893 52.223 25.6373 52.223 25.3374ZM50.945 25.4603C50.945 25.5243 50.935 25.6029 50.9 25.6619C50.851 25.7602 50.723 25.7996 50.512 25.7996H48.9682V25.0965H50.487C50.694 25.0965 50.832 25.1309 50.9 25.2588C50.935 25.3079 50.945 25.3866 50.945 25.4603Z" fill="#394149"/>
<path d="M25.1001 31.8188C25.1001 31.7557 25.1001 29.9329 25.1001 29.9329H24.6398C24.6398 29.9329 24.6398 31.7482 24.6398 31.7891C24.6398 32.2271 24.2277 32.4759 23.6337 32.4759C22.9321 32.4759 22.5868 32.2086 22.5868 31.7854C22.5868 31.7445 22.5868 29.9329 22.5868 29.9329H22.1228C22.1228 29.9329 22.1228 31.7 22.1228 31.7705C22.1228 32.5427 22.7242 32.8842 23.6152 32.8842C24.5358 32.8842 25.1001 32.5204 25.1001 31.8188Z" fill="#394149"/>
<path d="M28.4031 32.8471V32.4202H26.3947V29.9329H25.9307V32.8471H28.4031Z" fill="#394149"/>
<path d="M31.0398 30.3561V29.9329H27.9436V30.3561H29.2578V32.8471H29.7256V30.3561H31.0398Z" fill="#394149"/>
<path d="M34.3396 30.757C34.3396 30.5491 34.295 30.3969 34.2171 30.2744C34.0797 30.0702 33.8161 29.9329 33.3781 29.9329H31.4922V32.8471H31.9488V31.6183H33.2778L34.0908 32.8471H34.6254L33.7456 31.5403C33.9683 31.5144 34.1428 31.3881 34.2356 31.2248C34.3025 31.1134 34.3396 30.9501 34.3396 30.757ZM33.8792 30.7941C33.8792 30.8758 33.8607 30.9761 33.8273 31.0429C33.7679 31.1505 33.6305 31.2062 33.4078 31.2099H31.9525C31.9525 31.2025 31.9525 30.3487 31.9525 30.3487H33.3224C33.6008 30.3487 33.7493 30.4155 33.8273 30.5417C33.8607 30.6011 33.8792 30.7013 33.8792 30.7941Z" fill="#394149"/>
<path d="M35.6607 32.1269H37.4761L37.8473 32.8471H38.3448L36.8672 29.9329H36.3215L34.7957 32.8471H35.282L35.6607 32.1269ZM37.283 31.7148H35.8612L36.4514 30.5974L36.5814 30.3264L36.7113 30.5974L37.283 31.7148Z" fill="#394149"/>
<path d="M43.053 32.5687C43.1681 32.435 43.2201 32.2457 43.2201 32.0415C43.2201 31.8485 43.1644 31.6554 43.0493 31.5366C42.9342 31.4253 42.7486 31.3325 42.5444 31.3139C42.6632 31.2953 42.756 31.2211 42.8191 31.1431C42.9194 31.028 42.9787 30.8424 42.9787 30.6568C42.9787 30.46 42.9194 30.2818 42.7931 30.1593C42.6558 30.022 42.4219 29.9329 42.0952 29.9329H40.135V32.8471H42.24C42.6335 32.8471 42.9082 32.7469 43.053 32.5687ZM42.4998 30.7496C42.4998 30.8795 42.459 30.9946 42.3885 31.0614C42.3179 31.1394 42.1991 31.1728 42.0729 31.1728H40.5879V30.3338H41.9875C42.1583 30.3338 42.2882 30.3672 42.3773 30.4489C42.4553 30.5231 42.4998 30.6308 42.4998 30.7496ZM42.6483 32.2865C42.5555 32.3905 42.3959 32.4425 42.162 32.4425H40.5879V31.5775H42.1732C42.3885 31.5775 42.537 31.622 42.6261 31.7074C42.7077 31.7854 42.7412 31.8856 42.7412 32.0007C42.7412 32.1195 42.7152 32.2197 42.6483 32.2865Z" fill="#394149"/>
<path d="M46.5903 32.8471V32.4202H44.3258V31.5886H46.5012V31.1654H44.3258V30.3561H46.5643V29.9329H43.8728V32.8471H46.5903Z" fill="#394149"/>
<path d="M50.2171 31.9857C50.2171 31.5105 49.9021 31.2655 49.1261 31.1764C48.9958 31.1579 48.7136 31.1282 48.5614 31.1096C47.8412 31.0242 47.6222 30.9277 47.6222 30.679C47.6222 30.4377 47.8635 30.3003 48.5911 30.3003C49.1551 30.3003 49.4451 30.4117 49.5901 30.6121C49.6311 30.6678 49.6531 30.7347 49.6641 30.7866H50.1611C50.1471 30.7012 50.1131 30.5824 50.0611 30.4859C49.8611 30.1407 49.4491 29.8919 48.5911 29.8919C47.5665 29.8882 47.1433 30.2595 47.1433 30.7198C47.1433 31.1801 47.4737 31.414 48.3313 31.5143C48.4798 31.5328 48.7433 31.5625 48.8733 31.5774C49.5381 31.659 49.7461 31.7593 49.7461 32.0377C49.7461 32.2939 49.5081 32.4795 48.747 32.4795C48.1234 32.4795 47.7892 32.3681 47.6556 32.1528C47.6148 32.0934 47.5888 32.0006 47.5851 31.9375H47.095C47.1062 32.0711 47.1433 32.2159 47.2101 32.331C47.4032 32.6837 47.8561 32.8879 48.7322 32.8879C49.7791 32.8879 50.2171 32.55 50.2171 31.9857Z" fill="#394149"/>
<path d="M53.546 30.3561V29.9329H50.45V30.3561H51.764V32.8471H52.2319V30.3561H53.546Z" fill="#394149"/>
<path d="M20.8088 35.38C20.8088 35.083 20.7494 34.8825 20.6491 34.7303C20.5081 34.5112 20.2333 34.3962 19.7544 34.3962H17.9131V37.3104H18.3734V36.36C18.3734 36.36 19.6728 36.36 19.7359 36.36C20.1851 36.3563 20.4932 36.2524 20.6566 36.0148C20.7605 35.87 20.8088 35.6621 20.8088 35.38ZM20.341 35.38C20.341 35.5284 20.3261 35.6398 20.2779 35.7141C20.1925 35.8514 20.018 35.9368 19.6579 35.9368C19.6245 35.9368 18.3734 35.9368 18.3734 35.9368V34.812H19.6728C20.0106 34.812 20.1851 34.8899 20.2779 35.0421C20.3224 35.1089 20.341 35.2315 20.341 35.38Z" fill="#394149"/>
<path d="M24.1689 37.3104V36.8835H21.9043V36.0519H24.0798V35.6287H21.9043V34.8194H24.1429V34.3962H21.4514V37.3104H24.1689Z" fill="#394149"/>
<path d="M27.7104 35.2203C27.7104 35.0124 27.6659 34.8602 27.5879 34.7377C27.4505 34.5335 27.187 34.3962 26.7489 34.3962H24.863V37.3104H25.3196V36.0816H26.6487L27.4617 37.3104H27.9963L27.1164 36.0036C27.3392 35.9777 27.5137 35.8514 27.6065 35.6881C27.6733 35.5767 27.7104 35.4134 27.7104 35.2203ZM27.2501 35.2574C27.2501 35.3391 27.2315 35.4394 27.1981 35.5062C27.1387 35.6138 27.0013 35.6695 26.7786 35.6732H25.3233C25.3233 35.6658 25.3233 34.812 25.3233 34.812H26.6932C26.9716 34.812 27.1201 34.8788 27.1981 35.005C27.2315 35.0644 27.2501 35.1646 27.2501 35.2574Z" fill="#394149"/>
<path d="M31.1521 34.8194V34.3962H28.5608V37.3104H29.0211V36.0705H31.0556V35.6361H29.0211V34.8194H31.1521Z" fill="#394149"/>
<path d="M33.265 34.3442C32.645 34.3442 32.2181 34.4964 31.9136 34.8157C31.6575 35.0644 31.5461 35.4097 31.5461 35.844C31.5461 36.3192 31.6909 36.6756 31.9582 36.9169C32.2441 37.2028 32.6821 37.3512 33.265 37.3512C33.8664 37.3512 34.3341 37.2028 34.6126 36.902C34.8539 36.657 34.9801 36.3081 34.9801 35.8403C34.9801 35.3874 34.8724 35.0421 34.6163 34.7971C34.323 34.4927 33.8849 34.3442 33.265 34.3442ZM33.265 36.9355C32.8566 36.9355 32.567 36.8464 32.348 36.6682C32.1253 36.4863 32.0176 36.2078 32.0176 35.8514C32.0176 35.5173 32.1104 35.2389 32.2886 35.0718C32.4928 34.8788 32.8046 34.7637 33.2613 34.7637C33.7327 34.7637 34.026 34.8751 34.245 35.0681C34.4307 35.2315 34.5123 35.521 34.5123 35.8477C34.5123 36.1781 34.427 36.4603 34.2376 36.631C34.0186 36.8352 33.7105 36.9355 33.265 36.9355Z" fill="#394149"/>
<path d="M38.4634 35.2203C38.4634 35.0124 38.4188 34.8602 38.3409 34.7377C38.2035 34.5335 37.9399 34.3962 37.5019 34.3962H35.616V37.3104H36.0726V36.0816H37.4016L38.2147 37.3104H38.7492L37.8694 36.0036C38.0921 35.9777 38.2666 35.8514 38.3594 35.6881C38.4263 35.5767 38.4634 35.4134 38.4634 35.2203ZM38.003 35.2574C38.003 35.3391 37.9845 35.4394 37.9511 35.5062C37.8917 35.6138 37.7543 35.6695 37.5316 35.6732H36.0763C36.0763 35.6658 36.0763 34.812 36.0763 34.812H37.4462C37.7246 34.812 37.8731 34.8788 37.9511 35.005C37.9845 35.0644 38.003 35.1646 38.003 35.2574Z" fill="#394149"/>
<path d="M42.9039 37.3104V34.3962H42.3025L41.1034 36.7944L39.9265 34.3962H39.314V37.3104H39.7558V35.0681L40.8546 37.3104H41.3372L42.4621 35.0681V37.3104H42.9039Z" fill="#394149"/>
<path d="M44.2075 36.5902H46.0229L46.3941 37.3104H46.8916L45.414 34.3962H44.8683L43.3425 37.3104H43.8288L44.2075 36.5902ZM45.8298 36.1781H44.408L44.9982 35.0607L45.1282 34.7897L45.2581 35.0607L45.8298 36.1781Z" fill="#394149"/>
<path d="M50.2361 37.3104V34.3962H49.7941V36.6607L47.8641 34.3962H47.3406V37.3104H47.7898V35.031L49.7351 37.3104H50.2361Z" fill="#394149"/>
<path d="M54.2411 36.2227H53.7581C53.7431 36.3563 53.6911 36.49 53.5981 36.5902C53.3981 36.8241 53.0791 36.9243 52.5891 36.9243C52.1771 36.9243 51.7351 36.8092 51.5231 36.5085C51.4121 36.3675 51.3411 36.1596 51.3411 35.8477C51.3411 35.5693 51.3901 35.3614 51.4971 35.2203C51.6751 34.9345 52.0501 34.786 52.5781 34.786C53.0901 34.786 53.4131 34.927 53.5841 35.1238C53.6801 35.2277 53.7361 35.3503 53.7541 35.495H54.2371C54.2221 35.3317 54.1701 35.1386 54.0591 34.9753C53.8211 34.6226 53.3831 34.3442 52.5811 34.3442C51.8171 34.3442 51.3601 34.5892 51.1071 34.9567C50.9441 35.1683 50.8621 35.4653 50.8621 35.844C50.8621 36.2672 50.9631 36.5791 51.1371 36.7981C51.3901 37.1434 51.8761 37.3512 52.6111 37.3512C53.3651 37.3512 53.8141 37.1248 54.0371 36.7647C54.1631 36.5902 54.2261 36.3823 54.2411 36.2227Z" fill="#394149"/>
<path d="M57.563 37.3104V36.8835H55.298V36.0519H57.474V35.6287H55.298V34.8194H57.537V34.3962H54.845V37.3104H57.563Z" fill="#394149"/>
<path d="M23.6119 40.2053L24.1671 41.9141H25.9638L24.5103 42.9702L25.0655 44.6789L23.6119 43.6229L22.1583 44.6789L22.7136 42.9702L21.26 41.9141H23.0567L23.6119 40.2053Z" fill="#394149"/>
<path d="M30.0215 40.2056L30.588 41.9143H32.4214L30.9382 42.9704L31.5047 44.6792L30.0215 43.6231L28.5383 44.6792L29.1048 42.9704L27.6216 41.9143H29.455L30.0215 40.2056Z" fill="#394149"/>
<path d="M36.3804 40.2056L36.947 41.9143H38.7803L37.2971 42.9704L37.8637 44.6792L36.3804 43.6231L34.8972 44.6792L35.4637 42.9704L33.9805 41.9143H35.8139L36.3804 40.2056Z" fill="#394149"/>
<path d="M42.7395 40.2056L43.306 41.9143H45.1394L43.6562 42.9704L44.2227 44.6792L42.7395 43.6231L41.2563 44.6792L41.8228 42.9704L40.3396 41.9143H42.173L42.7395 40.2056Z" fill="#394149"/>
<path d="M49.1491 40.2056L49.7041 41.9143H51.5011L50.0471 42.9704L50.6021 44.6792L49.1491 43.6231L47.6954 44.6792L48.2507 42.9704L46.7971 41.9143H48.5938L49.1491 40.2056Z" fill="#394149"/>
<path d="M26.726 11.3762L27.1458 12.6682H28.5043L27.4053 13.4667L27.8251 14.7586L26.726 13.9602L25.627 14.7586L26.0468 13.4667L24.9478 12.6682H26.3063L26.726 11.3762Z" fill="#394149"/>
<path d="M31.5724 11.3745L32.0008 12.6665H33.3869L32.2655 13.465L32.6938 14.7569L31.5724 13.9584L30.4509 14.7569L30.8793 13.465L29.7578 12.6665H31.144L31.5724 11.3745Z" fill="#394149"/>
<path d="M36.38 11.3745L36.8083 12.6665H38.1945L37.0731 13.465L37.5014 14.7569L36.38 13.9584L35.2585 14.7569L35.6869 13.465L34.5654 12.6665H35.9516L36.38 11.3745Z" fill="#394149"/>
<path d="M41.1886 11.3745L41.6169 12.6665H43.0031L41.8817 13.465L42.31 14.7569L41.1886 13.9584L40.0671 14.7569L40.4955 13.465L39.374 12.6665H40.7602L41.1886 11.3745Z" fill="#394149"/>
<path d="M46.0341 11.3745L46.4539 12.6665H47.8124L46.7134 13.465L47.1332 14.7569L46.0341 13.9584L44.9351 14.7569L45.3549 13.465L44.2559 12.6665H45.6143L46.0341 11.3745Z" fill="#394149"/>
<path fill-rule="evenodd" clip-rule="evenodd" d="M7.37633 34.6305C5.52373 23.0396 10.9305 11.5718 21.7546 6.64722L21.8545 6.86682C11.1393 11.7418 5.77723 23.0974 7.61453 34.5924C9.64723 47.3097 19.9066 54.9367 32.4701 55.3044L32.463 55.5456C19.8016 55.175 9.42993 47.479 7.37633 34.6305Z" fill="#394149"/>
<path d="M19.4079 9.60528C17.4076 9.65088 15.0665 10.7789 13.6851 12.4173C14.7929 13.446 16.5753 13.0657 17.858 12.8553C19.6887 12.5551 21.6355 11.9735 23.363 11.1502C22.6527 9.63818 20.7393 9.57498 19.4079 9.60528Z" fill="#394149"/>
<path d="M17.8346 7.13766C16.6498 8.98326 15.2378 10.8176 13.7012 12.4329C12.4156 11.2261 13.1916 9.21776 13.7163 7.96886C14.6668 5.70586 16.9457 3.75436 19.3282 2.75586C19.9821 4.24356 18.5618 6.00486 17.8346 7.13766Z" fill="#394149"/>
<path d="M13.6195 14.7806C11.7465 15.4464 10.137 17.3206 9.32886 19.2022C10.6757 19.8284 12.2068 18.9241 13.3269 18.322C14.8649 17.4952 16.434 16.3544 17.6686 15.0342C16.5531 13.8572 14.8593 14.34 13.6195 14.7806Z" fill="#394149"/>
<path d="M11.3491 12.9364C10.9391 15.0414 10.2517 17.2232 9.3489 19.2118C7.7731 18.4686 7.8331 16.34 7.9006 14.9854C8.0158 12.6733 9.3093 10.0367 11.1102 8.36108C12.2127 9.54308 11.6103 11.5955 11.3491 12.9364Z" fill="#394149"/>
<path d="M10.0156 21.4624C8.45489 22.6936 7.50889 24.9753 7.28979 27.0128C8.76619 27.1823 9.94629 25.8387 10.8244 24.9169C12.0199 23.6618 13.1516 22.0876 13.8703 20.4407C12.4629 19.6729 11.0322 20.6604 10.0156 21.4624Z" fill="#394149"/>
<path d="M7.31151 20.4232C7.58981 22.5489 7.59041 24.8486 7.31201 27.0158C5.59501 26.8049 5.02551 24.7433 4.68911 23.45C4.10831 21.2176 4.49771 18.334 5.62911 16.1638C7.04301 16.9465 7.13371 19.0645 7.31151 20.4232Z" fill="#394149"/>
<path d="M8.79073 28.756C7.55573 30.5651 7.12143 33.4002 7.67683 35.679C9.30883 35.2926 10.1178 33.4449 10.7674 32.14C11.6307 30.4057 12.3604 28.3824 12.6216 26.3973C10.8515 26.0289 9.60423 27.5642 8.79073 28.756Z" fill="#394149"/>
<path d="M5.54864 28.5731C6.51084 30.8008 7.26174 33.2527 7.70114 35.6735C5.82944 36.0756 4.48234 34.1102 3.69974 32.807C2.30644 30.4872 1.90054 27.2713 2.41094 24.4961C4.12404 24.8396 4.96234 27.2161 5.54864 28.5731Z" fill="#394149"/>
<path d="M9.65467 36.6272C8.99157 38.8218 9.45247 41.8053 10.7951 43.8685C12.2705 42.9079 12.4747 40.7937 12.6838 39.2778C12.9595 37.2774 13.0893 35.0614 12.7468 32.9871C10.8597 33.228 10.0976 35.1611 9.65467 36.6272Z" fill="#394149"/>
<path d="M6.3752 37.5667C8.0308 39.4664 9.558 41.6324 10.8175 43.8543C9.1093 44.9207 7.1048 43.4638 5.8891 42.4328C3.7324 40.6039 2.332 37.4954 2 34.5648C3.7948 34.3236 5.3765 36.4206 6.3752 37.5667Z" fill="#394149"/>
<path d="M13.1341 44.0968C13.2764 46.6513 14.9395 49.3318 17.1539 50.8575C18.2233 49.3934 17.553 47.1501 17.1882 45.5842C16.6971 43.4759 16.0174 41.2805 15.0073 39.3325C13.2459 40.2633 13.0404 42.4145 13.1341 44.0968Z" fill="#394149"/>
<path d="M10.1558 46.2546C12.5549 47.5877 14.9471 49.1608 17.1713 50.8347C15.8393 52.5887 13.1769 51.8893 11.5265 51.3255C8.6181 50.332 6.0252 47.713 4.6709 44.8033C6.388 43.9188 8.7386 45.4671 10.1558 46.2546Z" fill="#394149"/>
<path d="M19.9668 50.3373C21.4067 52.9651 24.688 54.6794 27.778 55.0921C28.1106 53.1817 26.0435 51.2902 24.9171 50.0528C23.3134 48.2911 21.6423 46.4629 19.7687 44.9397C18.365 46.5695 19.1071 48.7684 19.9668 50.3373Z" fill="#394149"/>
<path d="M17.9106 53.6677C21.1837 54.008 24.5123 54.4979 27.7835 55.0628C27.4712 57.4732 23.6461 57.8622 21.9096 58.0045C18.3491 58.2963 14.3883 56.8651 11.6304 54.4557C13.0002 52.8439 16.1671 53.4865 17.9106 53.6677Z" fill="#394149"/>
<path d="M24.215 4.6241C22.0175 5.251 19.4453 6.4403 18.1746 8.6357C20.4811 8.3843 22.748 7.5636 24.9649 6.9383C27.4481 6.2378 30.0628 5.7139 32.467 4.747C29.834 3.6936 26.7302 3.9065 24.215 4.6241Z" fill="#394149"/>
<path fill-rule="evenodd" clip-rule="evenodd" d="M66.728 34.5924C68.565 23.0974 63.203 11.742 52.488 6.86682L52.588 6.64722C63.412 11.5719 68.819 23.0396 66.966 34.6305C64.913 47.479 54.541 55.175 41.8796 55.5456L41.8726 55.3044C54.436 54.9367 64.695 47.3097 66.728 34.5924Z" fill="#394149"/>
<path d="M54.935 9.60528C56.935 9.65088 59.276 10.7789 60.658 12.4173C59.55 13.446 57.767 13.0657 56.485 12.8553C54.654 12.5551 52.707 11.9735 50.98 11.1502C51.69 9.63818 53.603 9.57498 54.935 9.60528Z" fill="#394149"/>
<path d="M56.5081 7.13766C57.6931 8.98326 59.1051 10.8176 60.6411 12.4329C61.9271 11.2261 61.1511 9.21776 60.6261 7.96886C59.6761 5.70586 57.3971 3.75436 55.0141 2.75586C54.3601 4.24356 55.7811 6.00486 56.5081 7.13766Z" fill="#394149"/>
<path d="M60.724 14.7806C62.597 15.4464 64.206 17.3206 65.014 19.2022C63.667 19.8284 62.136 18.9241 61.016 18.322C59.478 17.4952 57.909 16.3544 56.675 15.0342C57.79 13.8572 59.484 14.34 60.724 14.7806Z" fill="#394149"/>
<path d="M62.9941 12.9364C63.4041 15.0414 64.0911 17.2232 64.9941 19.2118C66.5701 18.4686 66.5101 16.34 66.4421 14.9854C66.3271 12.6733 65.0341 10.0367 63.2331 8.36108C62.1301 9.54308 62.7331 11.5955 62.9941 12.9364Z" fill="#394149"/>
<path d="M64.3269 21.4624C65.8879 22.6936 66.8339 24.9753 67.0529 27.0128C65.5769 27.1823 64.3969 25.8387 63.5189 24.9169C62.3229 23.6618 61.1909 22.0876 60.4729 20.4407C61.8799 19.6729 63.3109 20.6604 64.3269 21.4624Z" fill="#394149"/>
<path d="M67.0319 20.4232C66.7529 22.5487 66.7529 24.8486 67.0309 27.0158C68.7479 26.8049 69.3179 24.7433 69.6539 23.45C70.2349 21.2176 69.8449 18.334 68.7139 16.1638C67.2999 16.9465 67.2089 19.0645 67.0319 20.4232Z" fill="#394149"/>
<path d="M65.5519 28.756C66.7869 30.5651 67.2209 33.4002 66.6659 35.679C65.0339 35.2926 64.2249 33.445 63.5749 32.14C62.7119 30.4057 61.9819 28.3824 61.7209 26.3973C63.4909 26.0289 64.7389 27.5642 65.5519 28.756Z" fill="#394149"/>
<path d="M68.7941 28.5731C67.8321 30.8008 67.0811 33.2527 66.6421 35.6735C68.5131 36.0756 69.8601 34.1102 70.6431 32.807C72.0361 30.4872 72.4421 27.2713 71.9321 24.4961C70.2191 24.8396 69.3801 27.2161 68.7941 28.5731Z" fill="#394149"/>
<path d="M64.688 36.6272C65.351 38.8218 64.891 41.8053 63.548 43.8685C62.073 42.9079 61.868 40.7937 61.659 39.2778C61.384 37.2774 61.254 35.0614 61.596 32.9871C63.483 33.228 64.245 35.1611 64.688 36.6272Z" fill="#394149"/>
<path d="M67.9669 37.5667C66.3119 39.4665 64.7849 41.6324 63.5249 43.8543C65.2329 44.9207 67.2379 43.4638 68.4539 42.4328C70.6099 40.6039 72.0109 37.4954 72.3429 34.5648C70.5479 34.3236 68.9659 36.4206 67.9669 37.5667Z" fill="#394149"/>
<path d="M61.208 44.0968C61.066 46.6513 59.403 49.3318 57.189 50.8575C56.119 49.3934 56.79 47.1502 57.154 45.5842C57.645 43.4759 58.325 41.2805 59.335 39.3325C61.097 40.2633 61.302 42.4145 61.208 44.0968Z" fill="#394149"/>
<path d="M64.1871 46.2546C61.7881 47.5877 59.3961 49.1608 57.1721 50.8347C58.5041 52.5887 61.1661 51.8893 62.8161 51.3255C65.7251 50.332 68.3181 47.713 69.6721 44.8033C67.9551 43.9188 65.6041 45.4671 64.1871 46.2546Z" fill="#394149"/>
<path d="M54.376 50.3373C52.936 52.9651 49.655 54.6794 46.5646 55.0921C46.232 53.1817 48.299 51.2902 49.426 50.0528C51.029 48.2911 52.7 46.4629 54.574 44.9397C55.978 46.5695 55.235 48.7684 54.376 50.3373Z" fill="#394149"/>
<path d="M56.4319 53.6677C53.1589 54.008 49.8309 54.4979 46.5591 55.0628C46.8715 57.4732 50.6969 57.8622 52.4329 58.0045C55.9939 58.2963 59.9549 56.8651 62.7119 54.4557C61.3429 52.8439 58.1759 53.4865 56.4319 53.6677Z" fill="#394149"/>
<path d="M50.1281 4.6241C52.3251 5.251 54.8981 6.4403 56.1681 8.6357C53.8621 8.3843 51.5951 7.5636 49.3781 6.9383C46.8949 6.2378 44.2802 5.7139 41.876 4.747C44.5091 3.6936 47.6128 3.9065 50.1281 4.6241Z" fill="#394149"/>
<path d="M38.6004 3.4879L37.4729 1L36.3666 3.4416L33.7937 1.8464L35.447 5.3207H39.5586L41.1522 1.8464L38.6004 3.4879Z" fill="#394149"/>
<path d="M39.5322 5.8606H35.4141V6.4683H39.5322V5.8606Z" fill="#394149"/>
<path d="M37.7673 52.8718L38.4309 54.914H40.5782L38.841 56.1761L39.5045 58.2183L37.7673 56.9562L36.0301 58.2183L36.6937 56.1761L34.9565 54.914H37.1038L37.7673 52.8718Z" fill="#394149"/>
</svg>
