<?xml version="1.0" encoding="UTF-8"?>
<svg id="Layer_1" data-name="Layer 1" xmlns="http://www.w3.org/2000/svg" viewBox="0 0 63.24 63.24">
  <defs>
    <style>
      .cls-1 {
        fill: #231f20;
      }
    </style>
  </defs>
  <g id="Group_17041" data-name="Group 17041">
    <g id="Group_89" data-name="Group 89">
      <path id="Path_272" data-name="Path 272" class="cls-1" d="m41.66,22.19v-5.31l-16.17-4.3-.87-.23v4.82l.87.23,12.23,3.25v5.4l3.93-3.86Z"/>
      <path id="Path_273" data-name="Path 273" class="cls-1" d="m32.66,31.01l3.9-3.82.04-.04v-5.57h-.04s-11.07-2.95-11.07-2.95l-.87-.23-3.93-1.04-1.13-.3v4.82l1.13.3,3.93,1.04.87.23,7.17,1.9v5.66Z"/>
      <path id="Path_274" data-name="Path 274" class="cls-1" d="m27.06,38.6l4.42,1.17v-13.57l-5.99-1.59-.87-.23-3.93-1.04-1.13-.3-3.93-1.04-1.18-.31v4.73l1.18.31,3.93,1.04,1.13.3,6.11,1.62v8.84l.27.07Z"/>
      <path id="Path_275" data-name="Path 275" class="cls-1" d="m25.9,30.58v13.57l-5.78-1.54v-6.98l-5.68-1.51-4-1.06v-6.58l4,1.06,1.17.31,3.93,1.04,1.13.3,5.21,1.39Z"/>
      <path id="Path_276" data-name="Path 276" class="cls-1" d="m45.63,49.3l-.87-.79.62-.55,7.22-6.43v-14.05l-9.57-5.01-.21.21-1.17,1.14-3.93,3.86-1.13,1.11-.04.04-3.9,3.82v8.65l11.49-11.27,2.28,1.2v7.55l-5.65,5.03-.62.55-4.63,4.14,4.6,4.16.87.79,1.38,1.25,4.88,4.41c1.84-1.04,3.56-2.27,5.15-3.66l-4.61-4.18-2.16-1.96Z"/>
      <path id="Path_277" data-name="Path 277" class="cls-1" d="m31.62,0C14.16,0,0,14.16,0,31.62s14.16,31.62,31.62,31.62c5.19,0,10.3-1.27,14.88-3.73l-4.94-4.46c-12.97,5.54-27.97-.49-33.51-13.46-5.54-12.97.49-27.97,13.46-33.51s27.97.49,33.51,13.46c4.32,10.13,1.67,21.89-6.6,29.18l4.6,4.16c12.85-11.81,13.69-31.81,1.88-44.66C48.92,3.7,40.47,0,31.62,0Z"/>
    </g>
  </g>
</svg>