<?xml version="1.0" encoding="UTF-8"?>
<svg xmlns="http://www.w3.org/2000/svg" width="63.244" height="63.244" viewBox="0 0 63.244 63.244"><g id="Group_17041" data-name="Group 17041" transform="translate(-1923.375 -23.702)"><g id="Group_89" data-name="Group 89" transform="translate(1923.375 23.702)"><path id="Path_272" data-name="Path 272" d="M2153.729,140.516v-5.308l-16.168-4.3-.868-.23V135.5l.868.23,12.234,3.251v5.4Z" transform="translate(-2112.068 -118.332)" fill="#000"/><path id="Path_273" data-name="Path 273" d="M2105.912,185.385l3.9-3.823.041-.041v-5.568l-.041-.012L2098.744,173l-.868-.23-3.934-1.045-1.132-.3v4.815l1.132.3,3.934,1.045.868.23,7.168,1.905Z" transform="translate(-2073.251 -154.374)" fill="#000"/><path id="Path_274" data-name="Path 274" d="M2061.156,228.42l4.416,1.173V216.022l-5.992-1.593-.868-.23-3.934-1.045-1.132-.3-3.934-1.045-1.177-.313v4.732l1.177.313,3.934,1.045,1.132.3,6.107,1.621v8.839Z" transform="translate(-2034.088 -189.817)" fill="#000"/><path id="Path_275" data-name="Path 275" d="M2029.324,257.146v13.567l-5.777-1.535v-6.983l-5.675-1.51-4-1.062v-6.584l4,1.062,1.173.313,3.934,1.045,1.132.3Z" transform="translate(-2003.422 -226.565)" fill="#000"/><path id="Path_276" data-name="Path 276" d="M2219.287,245.205l-.868-.786.617-.551,7.218-6.428V223.387l-9.567-5.012-.21.206-1.165,1.144-3.934,3.856-1.127,1.107-.041.037-3.9,3.823v8.646l11.489-11.267,2.28,1.2v7.547l-5.65,5.033-.617.551-4.634,4.136,4.6,4.16.868.786,1.383,1.251,4.881,4.411a31.3,31.3,0,0,0,5.148-3.662l-4.613-4.177Z" transform="translate(-2173.651 -195.903)" fill="#000"/><path id="Path_277" data-name="Path 277" d="M1955,23.7a31.622,31.622,0,1,0,0,63.244,31.343,31.343,0,0,0,14.876-3.728l-4.938-4.465a25.536,25.536,0,1,1,6.864-4.333l4.6,4.164A31.61,31.61,0,0,0,1955,23.7Z" transform="translate(-1923.375 -23.702)" fill="#000"/></g></g></svg>